<svg width="384" height="384" viewBox="0 0 384 384" fill="none" xmlns="http://www.w3.org/2000/svg">
<path d="M149.944 20.0448C149.944 20.0448 113.08 22.2566 77.6294 49.559C46.7712 73.367 29.6525 108.91 27.8707 147.579C26.688 173.107 32.7859 197.998 40.1587 222.236C49.6282 253.417 55.7414 288.937 75.4867 315.587C106.276 357.059 165.796 374.554 215.57 367.127C247.726 362.335 281.702 344.087 291.602 311.063C295.265 298.844 297.055 285.719 303.314 274.422C310.81 260.89 324.419 252.987 334.748 241.966C347.505 228.357 352.65 211.4 355.83 193.459C366.167 135.168 344.064 85.7242 304.174 49.559C264.284 13.3939 166.917 14.1389 149.944 20.0448Z" fill="#D2F446" fill-opacity="0.24"/>
<path d="M155.597 50.0582C150.697 47.3856 148.462 49.6128 146.68 47.3856C144.899 45.1584 151.588 39.36 138.232 33.5616C138.232 33.5616 137.341 21.0816 119.032 20.6361C100.723 20.1907 105.661 33.1161 100.754 36.2342C95.8464 39.3523 94.5178 34.4525 89.6102 37.5782C84.7027 40.704 86.9453 46.9401 82.944 47.831C78.9427 48.7219 73.5821 43.8144 68.6822 46.9401C63.7824 50.0659 63.744 52.7309 61.5322 52.7309C59.3203 52.7309 54.8429 50.9491 52.1702 52.7309C49.4976 54.5126 46.3795 56.7475 46.3795 56.7475H159.168C159.168 56.7475 160.512 52.7309 155.597 50.0582Z" stroke="white" stroke-linecap="round" stroke-linejoin="round"/>
<path d="M88.8807 48.2227C88.2392 48.5862 87.5717 48.9019 86.8839 49.1674" stroke="white" stroke-linecap="round" stroke-linejoin="round"/>
<path d="M113.004 27.4022C111.898 27.897 110.926 28.6484 110.168 29.5941C109.411 30.5397 108.89 31.6524 108.649 32.8397C107.835 36.9254 105.93 39.6441 103.757 39.9129C101.583 40.1817 93.4195 39.3753 92.0525 42.3629C91.6902 43.241 91.4325 44.1586 91.2845 45.0969" stroke="white" stroke-linecap="round" stroke-linejoin="round"/>
<path d="M123.195 92.0755C121.283 91.031 120.415 91.8989 119.716 91.031C119.017 90.1632 121.628 87.8899 116.406 85.655C116.406 85.655 116.06 80.7782 108.918 80.6016C101.775 80.425 103.688 85.4784 101.775 86.6995C99.863 87.9206 99.3331 86.0006 97.4208 87.2218C95.5085 88.4429 96.3763 90.8774 94.8096 91.223C93.2429 91.5686 91.1462 89.687 89.2339 90.8774C87.3216 92.0678 87.3139 93.1814 86.4461 93.1814C85.5782 93.1814 83.8349 92.4826 82.7904 93.1814C81.7459 93.8803 80.4864 94.7174 80.4864 94.7174H124.554C124.554 94.7174 125.115 93.12 123.195 92.0755Z" stroke="white" stroke-linecap="round" stroke-linejoin="round"/>
<path d="M97.129 91.392C96.8813 91.5294 96.6248 91.65 96.361 91.753" stroke="white" stroke-linecap="round" stroke-linejoin="round"/>
<path d="M106.56 83.2205C106.127 83.4138 105.747 83.7077 105.45 84.0777C105.153 84.4477 104.949 84.8832 104.855 85.3478C104.54 86.9453 103.795 88.0051 102.943 88.1126C102.09 88.2202 98.903 87.8976 98.3731 89.065C98.2307 89.4074 98.1301 89.7659 98.0736 90.1325" stroke="white" stroke-linecap="round" stroke-linejoin="round"/>
<path d="M338.742 81.8918C336.822 80.8474 335.954 81.7229 335.255 80.8474C334.556 79.9718 337.175 77.7139 331.945 75.4714C331.945 75.4714 331.599 70.5946 324.457 70.4256C317.315 70.2566 319.235 75.3024 317.315 76.5158C315.395 77.7293 314.88 75.8246 312.96 77.0381C311.04 78.2515 311.915 80.7014 310.349 81.047C308.782 81.3926 306.693 79.511 304.773 80.7014C302.853 81.8918 302.861 82.9594 301.985 82.9594C301.11 82.9594 299.374 82.2682 298.33 82.9594C297.285 83.6506 296.064 84.48 296.064 84.48H340.132C340.132 84.48 340.654 82.944 338.742 81.8918Z" stroke="white" stroke-linecap="round" stroke-linejoin="round"/>
<path d="M312.676 81.1776C312.43 81.3204 312.173 81.4436 311.908 81.5462" stroke="white" stroke-linecap="round" stroke-linejoin="round"/>
<path d="M322.099 73.0445C321.667 73.2372 321.287 73.5311 320.991 73.9013C320.696 74.2715 320.494 74.7072 320.402 75.1718C320.079 76.7616 319.334 77.8291 318.482 77.9289C317.629 78.0288 314.442 77.7216 313.912 78.8889C313.771 79.2311 313.673 79.5898 313.62 79.9565" stroke="white" stroke-linecap="round" stroke-linejoin="round"/>
<path d="M248.064 145.828C245.207 145.828 241.805 144.991 240.046 141.481C236.636 134.661 242.964 127.473 249.162 121.275C255.36 115.077 256.65 108.925 256.666 108.872L257.572 109.048C257.526 109.302 256.266 115.484 249.823 121.928C243.848 127.903 237.742 134.792 240.876 141.059C243.871 147.049 252.472 144.269 252.557 144.238L252.849 145.121C251.295 145.582 249.684 145.82 248.064 145.828Z" fill="#263238"/>
<path d="M266.35 128.187H245.453V152.102H266.35V128.187Z" fill="#D2F446" stroke="#263238" stroke-miterlimit="10"/>
<path d="M256.924 82.7044L254.608 83.0551L263.596 142.421L265.912 142.07L256.924 82.7044Z" fill="#263238" stroke="#263238" stroke-miterlimit="10"/>
<path d="M262.053 106.91L256.882 107.693L262.173 142.638L267.344 141.855L262.053 106.91Z" fill="#D2F446" stroke="#263238" stroke-miterlimit="10"/>
<path d="M210.979 46.3161L209.844 48.3648L262.358 77.4738L263.493 75.4251L210.979 46.3161Z" fill="#263238" stroke="#263238" stroke-miterlimit="10"/>
<path d="M233.277 57.0264L230.742 61.6008L261.654 78.7356L264.189 74.1612L233.277 57.0264Z" fill="#D2F446" stroke="#263238" stroke-miterlimit="10"/>
<path d="M280.535 134.984L279.076 129.876C279.066 129.696 279.046 129.517 279.014 129.339L268.57 80.3251C268.329 79.1952 267.804 78.1453 267.045 77.2745C266.286 76.4037 265.317 75.7409 264.23 75.3485L204.849 53.8445L203.22 63.5981L253.14 85.5782C254.025 85.9681 254.817 86.5425 255.462 87.263C256.107 87.9835 256.591 88.8336 256.881 89.7562L270.067 131.666C270.396 132.714 271.086 133.611 272.014 134.199C272.942 134.787 274.048 135.026 275.136 134.876L275.098 134.953L280.535 134.984Z" fill="#D2F446" stroke="#263238" stroke-miterlimit="10"/>
<path d="M262.403 89.7869L275.589 131.697C275.777 132.294 276.083 132.847 276.49 133.323C276.897 133.799 277.396 134.188 277.957 134.467C278.518 134.745 279.129 134.907 279.754 134.943C280.38 134.979 281.006 134.888 281.595 134.676C282.662 134.3 283.553 133.544 284.098 132.552C284.643 131.561 284.805 130.403 284.552 129.3L274.107 80.2867C273.868 79.1574 273.344 78.1077 272.586 77.2369C271.828 76.3661 270.861 75.7029 269.775 75.3101L210.386 53.8061L208.765 63.5597L258.685 85.5399C259.573 85.9398 260.365 86.526 261.006 87.2588C261.648 87.9916 262.124 88.8538 262.403 89.7869Z" fill="#D2F446" stroke="#263238" stroke-miterlimit="10"/>
<path d="M297.016 140.959H255.444V163.254H297.016V140.959Z" fill="#D2F446" stroke="#263238" stroke-miterlimit="10"/>
<path d="M351.567 163.53L318.152 153.546C316.646 153.036 315.072 152.754 313.482 152.709L311.347 152.571H301.824V152.732C301.157 152.69 300.487 152.69 299.82 152.732V144.215H296.102V153.431L262.356 164.352C261.382 164.666 260.533 165.282 259.931 166.11C259.329 166.938 259.006 167.936 259.008 168.96V169.889C259.008 171.171 259.517 172.401 260.422 173.308C261.328 174.215 262.557 174.726 263.839 174.728H349.932C351.298 174.723 352.617 174.228 353.65 173.332C354.682 172.437 355.359 171.201 355.557 169.849C355.755 168.496 355.461 167.118 354.729 165.964C353.997 164.81 352.875 163.958 351.567 163.561V163.53Z" fill="#263238" stroke="#263238" stroke-miterlimit="10"/>
<path d="M316.332 146.173V101.906C316.333 101.71 316.295 101.515 316.22 101.333C316.146 101.152 316.036 100.987 315.898 100.847C315.759 100.708 315.595 100.598 315.414 100.522C315.232 100.447 315.038 100.408 314.842 100.408H286.141C284.322 100.407 282.532 100.875 280.946 101.767C279.36 102.659 278.031 103.945 277.087 105.5C276.078 107.159 275.546 109.065 275.551 111.007V146.173H316.332Z" fill="#263238" stroke="#263238" stroke-miterlimit="10"/>
<path d="M275.543 129.262H295.104V146.173H296.763V129.262H313.344V127.603H296.763V101.737H295.104V127.603H275.543V129.262Z" fill="#D2F446" stroke="#263238" stroke-miterlimit="10"/>
<path d="M314.88 100.408H286.141C283.566 100.414 281.081 101.358 279.153 103.066H312.353V146.173H316.332V101.906C316.334 101.516 316.183 101.141 315.911 100.861C315.64 100.581 315.27 100.418 314.88 100.408Z" fill="#D2F446" stroke="#263238" stroke-miterlimit="10"/>
<path d="M339.548 146.173V123.955H316.332L294.758 146.173H339.548Z" fill="#D2F446" stroke="#263238" stroke-miterlimit="10"/>
<path d="M339.548 128.602H319.319L310.034 138.877H339.548V128.602Z" fill="#263238" stroke="#263238" stroke-miterlimit="10"/>
<path d="M318.359 163.53L284.943 153.546C283.437 153.036 281.863 152.754 280.274 152.709L278.139 152.571H268.6L268.416 155.581L241.213 164.352C240.239 164.666 239.39 165.282 238.788 166.11C238.186 166.938 237.863 167.936 237.865 168.96V169.889C237.865 171.173 238.375 172.403 239.282 173.311C240.19 174.218 241.42 174.728 242.703 174.728H316.723C318.09 174.723 319.409 174.228 320.441 173.332C321.474 172.437 322.151 171.201 322.349 169.849C322.547 168.496 322.253 167.118 321.521 165.964C320.789 164.81 319.667 163.958 318.359 163.561V163.53Z" fill="#545454" stroke="#263238" stroke-miterlimit="10"/>
<path d="M262.925 153.423L229.133 164.329C228.158 164.643 227.309 165.259 226.707 166.087C226.105 166.915 225.782 167.913 225.784 168.937V169.866C225.784 171.148 226.293 172.378 227.199 173.285C228.104 174.192 229.333 174.703 230.615 174.705H304.643C305.392 174.705 306.134 174.557 306.826 174.27C307.519 173.984 308.148 173.563 308.677 173.033C309.207 172.503 309.628 171.874 309.914 171.182C310.201 170.49 310.349 169.748 310.349 168.998C310.349 167.771 309.952 166.577 309.219 165.593C308.486 164.609 307.454 163.889 306.278 163.538L272.863 153.554C269.651 152.44 266.165 152.394 262.925 153.423Z" fill="#8A8A8A" stroke="#263238" stroke-miterlimit="10"/>
<path d="M230.63 171.909C230.087 171.907 229.567 171.69 229.183 171.306C228.799 170.922 228.582 170.402 228.58 169.859V168.96C228.58 168.526 228.718 168.104 228.973 167.753C229.228 167.403 229.588 167.142 230.001 167.009L263.793 156.111C265.077 155.692 266.42 155.479 267.771 155.482C269.206 155.481 270.631 155.72 271.987 156.188L305.51 166.226C306.181 166.427 306.758 166.863 307.134 167.454C307.51 168.045 307.662 168.751 307.56 169.444C307.458 170.138 307.111 170.771 306.581 171.229C306.051 171.687 305.374 171.94 304.673 171.94L230.63 171.909Z" fill="#263238" stroke="#263238" stroke-miterlimit="10"/>
<path d="M210.662 58.8134L210.202 49.152C210.171 48.5101 209.992 47.8839 209.68 47.3223C209.367 46.7607 208.929 46.2787 208.4 45.9138C207.871 45.549 207.265 45.3111 206.629 45.2187C205.993 45.1263 205.344 45.1819 204.733 45.3811L192.077 49.4899C190.754 49.9212 189.535 50.6214 188.496 51.5466C187.457 52.4718 186.621 53.6019 186.04 54.8659L168.138 94.0339L174.413 100.769L207.836 66.2784C208.791 65.2922 209.534 64.1214 210.02 62.8377C210.506 61.554 210.725 60.1846 210.662 58.8134Z" fill="#D2F446" stroke="#263238" stroke-miterlimit="10"/>
<path d="M214.126 58.8134L213.665 49.152C213.634 48.5101 213.456 47.8839 213.143 47.3223C212.831 46.7607 212.393 46.2787 211.864 45.9138C211.335 45.549 210.729 45.3111 210.093 45.2187C209.457 45.1263 208.808 45.1819 208.197 45.3811L195.548 49.513C194.224 49.9417 193.004 50.641 191.965 51.5665C190.926 52.4919 190.09 53.6234 189.512 54.889L171.61 94.057L177.876 100.792L211.3 66.3014C212.259 65.3136 213.005 64.1392 213.491 62.8511C213.977 61.5629 214.193 60.1886 214.126 58.8134Z" fill="#D2F446" stroke="#263238" stroke-miterlimit="10"/>
<path d="M157.44 83.136H139.776C136.558 82.8025 133.32 83.5365 130.56 85.225C114.532 94.5178 130.56 118.902 130.56 118.902H152.156L159.122 99.1642L157.44 83.136Z" fill="#545454" stroke="#263238" stroke-miterlimit="10"/>
<path d="M180.664 99.1642L152.102 118.902C152.102 118.902 136.074 94.5178 152.102 85.225C168.131 75.9322 180.664 99.1642 180.664 99.1642Z" fill="#263238" stroke="#263238" stroke-miterlimit="10"/>
<path d="M130.506 118.902V127.258H132.303V123.264H133.686V127.258H136.082V123.264H137.472V127.258H139.86V123.264H141.251V127.258H143.639V123.264H145.029V127.258H147.418V123.264H148.808V127.258H152.102V118.902H130.506Z" fill="#8A8A8A" stroke="#263238" stroke-miterlimit="10"/>
<path d="M311.078 232.09H217.29V236.467H311.078V232.09Z" fill="white" stroke="#263238" stroke-linejoin="round"/>
<path d="M226.499 236.675L234.301 250.975C236.882 256.266 246.904 258.824 262.441 258.824C277.978 258.824 288.553 255.636 290.588 250.975L298.391 236.675H226.499Z" fill="white" stroke="#263238" stroke-linejoin="round"/>
<path d="M229.732 242.596C236.936 246.559 248.932 249.155 262.441 249.155C275.95 249.155 287.954 246.559 295.158 242.596L298.391 236.675H226.499L229.732 242.596Z" fill="#263238" stroke="#263238" stroke-linejoin="round"/>
<path d="M262.441 247.304C284.472 247.304 302.331 240.444 302.331 231.982C302.331 223.52 284.472 216.66 262.441 216.66C240.41 216.66 222.551 223.52 222.551 231.982C222.551 240.444 240.41 247.304 262.441 247.304Z" fill="#D2F446" stroke="#263238" stroke-linejoin="round"/>
<path d="M295.196 220.416L285.535 198.912H239.347L229.693 220.416C228.572 222.927 227.19 225.308 225.923 227.75C225.5 228.54 225.276 229.42 225.27 230.316C225.27 237.865 241.912 243.994 262.441 243.994C282.97 243.994 299.62 237.85 299.62 230.316C299.614 229.42 299.39 228.54 298.967 227.75C297.7 225.339 296.317 222.958 295.196 220.416Z" fill="white" stroke="#263238" stroke-linejoin="round"/>
<path d="M294.92 226.629L296.387 229.678" stroke="#263238" stroke-linecap="round" stroke-linejoin="round"/>
<path d="M284.068 204.096L292.524 221.66" stroke="#263238" stroke-linecap="round" stroke-linejoin="round"/>
<path d="M262.441 206.715C275.195 206.715 285.535 203.204 285.535 198.874C285.535 194.543 275.195 191.032 262.441 191.032C249.687 191.032 239.347 194.543 239.347 198.874C239.347 203.204 249.687 206.715 262.441 206.715Z" fill="#263238" stroke="#263238" stroke-linejoin="round"/>
<path d="M201.738 239.747H192.054V242.35H201.738V239.747Z" fill="white" stroke="#263238" stroke-linejoin="round"/>
<path d="M205.356 271.58L203.72 269L216.046 255.514L201.539 242.243L202.998 239.493L218.88 254.016C219.052 254.187 219.189 254.39 219.283 254.614C219.376 254.838 219.425 255.079 219.425 255.322C219.456 255.816 219.294 256.304 218.972 256.681L205.356 271.58Z" fill="white" stroke="#263238" stroke-linejoin="round"/>
<path d="M208.65 231.552C202.775 231.552 198.013 241.536 198.013 253.901C198.013 266.266 202.775 276.25 208.65 276.25C214.525 276.25 219.287 266.266 219.287 253.901C219.287 241.536 214.525 231.552 208.65 231.552ZM209.219 272.079C204.749 272.079 201.132 263.939 201.132 253.901C201.132 243.863 204.749 235.73 209.219 235.73C213.688 235.73 217.344 243.863 217.344 253.901C217.344 263.939 213.681 272.079 209.219 272.079Z" fill="white" stroke="#263238" stroke-linejoin="round"/>
<path d="M289.636 290.404H237.865L218.496 271.411L219.986 310.141L237.604 294.129H289.636V290.404Z" fill="white" stroke="#263238" stroke-linejoin="round"/>
<path d="M326.907 301.862H283.139L295.058 270.29H338.826L326.907 301.862Z" fill="white" stroke="#263238" stroke-linejoin="round"/>
<path d="M352.98 218.957H309.212V283.983H352.98V218.957Z" fill="white" stroke="#263238" stroke-linejoin="round"/>
<path d="M215.204 315.204L150.406 348.836L151.778 351.481L216.577 317.849L215.204 315.204Z" fill="white" stroke="#263238" stroke-linejoin="round"/>
<path d="M221.1 216.653H214.771V351.483H221.1V216.653Z" fill="white" stroke="#263238" stroke-linejoin="round"/>
<path d="M309.197 351.491C326.375 351.491 340.301 337.565 340.301 320.387C340.301 303.208 326.375 289.283 309.197 289.283C292.019 289.283 278.093 303.208 278.093 320.387C278.093 337.565 292.019 351.491 309.197 351.491Z" fill="#263238" stroke="#263238" stroke-linejoin="round"/>
<path d="M309.197 343.296C321.849 343.296 332.106 333.039 332.106 320.387C332.106 307.734 321.849 297.477 309.197 297.477C296.544 297.477 286.287 307.734 286.287 320.387C286.287 333.039 296.544 343.296 309.197 343.296Z" fill="#D2F446" stroke="#263238" stroke-miterlimit="10"/>
<path d="M48.6682 338.135L46.1645 342.321C46.1645 342.321 41.3261 343.089 40.0205 344.74C38.7149 346.391 38.9453 351.191 38.9453 351.191H71.977C72.2819 350.046 72.2819 348.841 71.977 347.697L71.209 345.277C71.209 345.277 72.553 339.901 72.2842 336.945H49.6589L48.6682 338.135Z" fill="#D2F446" stroke="#263238" stroke-miterlimit="10"/>
<path d="M38.9069 351.191H71.977C72.2474 350.135 72.271 349.032 72.0461 347.965H39.0221C38.91 349.037 38.8715 350.114 38.9069 351.191Z" fill="white" stroke="#263238" stroke-miterlimit="10"/>
<path d="M58.2682 339.901H51.0029C50.789 339.901 50.5839 339.816 50.4327 339.665C50.2814 339.514 50.1965 339.309 50.1965 339.095C50.1965 338.881 50.2814 338.676 50.4327 338.525C50.5839 338.374 50.789 338.289 51.0029 338.289H58.2682C58.482 338.289 58.6871 338.374 58.8384 338.525C58.9896 338.676 59.0746 338.881 59.0746 339.095C59.0746 339.309 58.9896 339.514 58.8384 339.665C58.6871 339.816 58.482 339.901 58.2682 339.901Z" fill="#263238"/>
<path d="M57.1929 341.76H49.92C49.7061 341.76 49.501 341.675 49.3498 341.524C49.1985 341.373 49.1136 341.167 49.1136 340.954C49.1136 340.74 49.1985 340.535 49.3498 340.383C49.501 340.232 49.7061 340.147 49.92 340.147H57.1853C57.3991 340.147 57.6042 340.232 57.7555 340.383C57.9067 340.535 57.9917 340.74 57.9917 340.954C57.9917 341.167 57.9067 341.373 57.7555 341.524C57.6042 341.675 57.3991 341.76 57.1853 341.76H57.1929Z" fill="#263238"/>
<path d="M56.1101 343.665H48.8525C48.6386 343.665 48.4335 343.58 48.2823 343.428C48.131 343.277 48.0461 343.072 48.0461 342.858C48.0461 342.644 48.131 342.439 48.2823 342.288C48.4335 342.137 48.6386 342.052 48.8525 342.052H56.1101C56.3239 342.052 56.5291 342.137 56.6803 342.288C56.8315 342.439 56.9165 342.644 56.9165 342.858C56.9165 343.072 56.8315 343.277 56.6803 343.428C56.5291 343.58 56.3239 343.665 56.1101 343.665Z" fill="#263238"/>
<path d="M63.913 351.191L66.3322 344.74" stroke="#263238" stroke-miterlimit="10"/>
<path d="M157.693 338.135L160.197 342.321C160.197 342.321 165.036 343.089 166.341 344.74C167.647 346.391 167.416 351.191 167.416 351.191H134.4C134.095 350.046 134.095 348.841 134.4 347.697L135.206 345.277C135.206 345.277 133.862 339.901 134.131 336.945H156.672L157.693 338.135Z" fill="#D2F446" stroke="#263238" stroke-miterlimit="10"/>
<path d="M167.424 351.191H134.4C134.13 350.135 134.106 349.032 134.331 347.965H167.355C167.452 349.038 167.475 350.116 167.424 351.191Z" fill="white" stroke="#263238" stroke-miterlimit="10"/>
<path d="M148.093 339.901H155.359C155.573 339.901 155.778 339.816 155.929 339.665C156.08 339.514 156.165 339.309 156.165 339.095C156.165 338.881 156.08 338.676 155.929 338.525C155.778 338.374 155.573 338.289 155.359 338.289H148.093C147.88 338.289 147.674 338.374 147.523 338.525C147.372 338.676 147.287 338.881 147.287 339.095C147.287 339.309 147.372 339.514 147.523 339.665C147.674 339.816 147.88 339.901 148.093 339.901Z" fill="#263238"/>
<path d="M149.169 341.76H156.434C156.648 341.76 156.853 341.675 157.004 341.524C157.155 341.373 157.24 341.167 157.24 340.954C157.24 340.74 157.155 340.535 157.004 340.383C156.853 340.232 156.648 340.147 156.434 340.147H149.169C148.955 340.147 148.75 340.232 148.598 340.383C148.447 340.535 148.362 340.74 148.362 340.954C148.362 341.167 148.447 341.373 148.598 341.524C148.75 341.675 148.955 341.76 149.169 341.76Z" fill="#263238"/>
<path d="M150.244 343.665H157.509C157.723 343.665 157.928 343.58 158.079 343.428C158.231 343.277 158.316 343.072 158.316 342.858C158.316 342.644 158.231 342.439 158.079 342.288C157.928 342.137 157.723 342.052 157.509 342.052H150.244C150.03 342.052 149.825 342.137 149.674 342.288C149.522 342.439 149.437 342.644 149.437 342.858C149.437 343.072 149.522 343.277 149.674 343.428C149.825 343.58 150.03 343.665 150.244 343.665Z" fill="#263238"/>
<path d="M142.449 351.191L140.029 344.74" stroke="#263238" stroke-miterlimit="10"/>
<path d="M156.472 328.835C156.472 328.105 152.801 326.884 152.801 326.884C152.801 326.884 151.334 308.774 151.089 303.398C150.843 298.022 143.508 286.026 142.042 280.888C140.575 275.75 136.412 242.726 134.454 231.468C132.495 220.209 127.603 203.82 127.603 203.82L127.849 202.353H78.5126L78.7584 203.82C78.7584 203.82 73.8662 220.209 71.9078 231.468C69.9494 242.726 65.7638 275.75 64.32 280.888C62.8762 286.026 55.5187 297.984 55.296 303.398C55.0733 308.813 53.5834 326.884 53.5834 326.884C53.5834 326.884 49.92 328.105 49.92 328.835C49.92 329.564 48.6989 338.135 48.6989 338.135H72.192C72.192 338.135 74.3885 332.26 74.1427 329.572C73.897 326.884 72.4378 326.147 73.1674 323.213C73.897 320.279 81.239 295.811 83.4432 287.493C84.672 282.772 86.1408 278.117 87.8438 273.546L103.204 222.39L118.564 273.546C120.267 278.117 121.736 282.772 122.964 287.493C125.169 295.811 132.503 320.279 133.24 323.213C133.978 326.147 132.472 326.884 132.257 329.572C132.042 332.26 134.216 338.135 134.216 338.135H157.701C157.701 338.135 156.472 329.572 156.472 328.835Z" fill="#263238" stroke="#263238" stroke-miterlimit="10"/>
<path d="M78.5126 137.28C78.5126 137.28 70.1952 137.772 67.991 140.214C65.7869 142.656 43.3075 172.508 44.0448 175.688C44.0678 175.783 44.1013 175.876 44.1446 175.964C44.0108 176.689 44.0583 177.436 44.2829 178.138C45.5117 181.809 64.0742 195.51 64.0742 195.51L75.3331 191.101L62.7149 174.851C69.4349 169.605 78.2669 162.232 78.2669 162.232L78.5126 137.28Z" fill="white"/>
<path d="M75.3331 191.101L74.6112 190.18V191.386L75.3331 191.101Z" fill="#D2F446"/>
<path d="M76.8 142.295H76.1856V137.518C75.7171 137.572 75.1949 137.649 74.6496 137.741V142.295H70.3795V138.801C70.1107 138.9 69.8496 139.008 69.6115 139.116V142.295H68.2905V139.93C68.183 140.022 68.0832 140.122 67.991 140.214C67.6531 140.59 66.8467 141.604 65.687 143.063H65.9482V148.754H65.3337V143.516L63.7977 145.528V148.754H61.44L60.8717 149.522H63.8669V155.22H59.5968V151.204L58.8288 152.256V155.22H57.5155V154.061C56.7475 155.121 55.9795 156.191 55.2115 157.271V161.687H54.5971V158.131C54.0749 158.861 53.568 159.59 53.0611 160.312V161.687H52.1011L51.5712 162.455H53.0611V168.192H48.8217V166.595L48.0537 167.777V168.192H47.7926C47.6237 168.453 47.4624 168.707 47.3088 168.96H48.0768V174.659H46.7405V169.889C45.876 171.248 45.1061 172.664 44.4365 174.129V174.659H44.2291C44.137 174.907 44.0726 175.164 44.0371 175.427H44.4365V178.499C45.2351 179.758 46.2072 180.898 47.3241 181.885H48.0921V182.577L48.8601 183.283V181.885H53.0995V186.931L54.8275 188.352H55.2499V188.69C56.0179 189.32 56.7859 189.934 57.5539 190.518V188.352H58.8288V191.547L59.5968 192.146V188.352H63.8362V194.166H65.3722V188.352H65.9865V194.166H67.584L68.2829 193.889V188.352H69.6038V193.375L70.3718 193.075V188.352H73.1597L72.5683 187.584H70.3795V184.75L69.6115 183.767V187.607H68.2905V182.016L65.9865 179.044V181.064H65.3722V178.253L63.8362 176.279V181.064H59.5968V175.365H63.1296L62.7149 174.828L63.0067 174.597H59.5968V168.96H63.8362V174.006C64.343 173.614 64.8576 173.238 65.3722 172.792V168.952H65.9865V172.293L68.2905 170.45V168.914H69.6115V169.344L71.0784 168.192H70.3795V162.493H74.6112V165.297C75.1795 164.836 75.6941 164.406 76.1472 164.029V162.493H76.7616V163.523L78.2976 162.271L78.5433 137.318C78.5433 137.318 77.8368 137.364 76.7923 137.48L76.8 142.295ZM48.0537 181.087H46.7405V175.388H48.0537V181.087ZM53.0611 181.087H48.8217V175.388H53.0611V181.087ZM53.0611 174.62H48.8217V168.96H53.0611V174.62ZM55.2115 187.553H54.5971V181.855H55.2115V187.553ZM55.2115 181.087H54.5971V175.388H55.2115V181.087ZM55.2115 174.62H54.5971V168.96H55.2115V174.62ZM55.2115 168.154H54.5971V162.455H55.2115V168.154ZM58.8288 187.553H57.5155V181.855H58.8288V187.553ZM58.8288 181.087H57.5155V175.388H58.8288V181.087ZM58.8288 174.62H57.5155V168.96H58.8288V174.62ZM58.8288 168.154H57.5155V162.455H58.8288V168.154ZM58.8288 161.687H57.5155V155.988H58.8288V161.687ZM65.3722 181.855H65.9865V187.553H65.3722V181.855ZM63.8362 181.855V187.553H59.5968V181.855H63.8362ZM63.8362 168.154H59.5968V162.455H63.8362V168.154ZM63.8362 161.687H59.5968V155.988H63.8362V161.687ZM65.9865 168.154H65.3722V162.455H65.9865V168.154ZM65.9865 161.687H65.3722V155.988H65.9865V161.687ZM65.9865 155.22H65.3722V149.522H65.9865V155.22ZM69.6115 168.192H68.2905V162.493H69.6115V168.192ZM69.6115 161.725H68.2905V156.027H69.6115V161.725ZM69.6115 155.259H68.2905V149.56H69.6115V155.259ZM69.6115 148.792H68.2905V143.101H69.6115V148.792ZM74.6112 161.725H70.3795V156.027H74.6112V161.725ZM74.6112 155.259H70.3795V149.56H74.6112V155.259ZM74.6112 148.792H70.3795V143.101H74.6112V148.792ZM76.7616 161.725H76.1472V156.027H76.7616V161.725ZM76.7616 155.259H76.1472V149.56H76.7616V155.259ZM76.7616 148.792H76.1472V143.101H76.7616V148.792Z" fill="#D2F446"/>
<path d="M44.1446 175.964C44.6131 173.115 47.3625 170.696 47.3625 170.696" stroke="#263238" stroke-miterlimit="10"/>
<path d="M62.7149 174.851L59.9424 171.287" stroke="#263238" stroke-miterlimit="10"/>
<path d="M44.1446 175.964C44.0108 176.689 44.0583 177.436 44.2829 178.138C45.5117 181.809 64.0742 195.51 64.0742 195.51L75.3331 191.101L62.7149 174.851" stroke="#263238" stroke-miterlimit="10"/>
<path d="M62.7149 174.851C69.4349 169.605 78.2669 162.232 78.2669 162.232L78.5126 137.28C78.5126 137.28 70.1952 137.772 67.991 140.214C65.7869 142.656 43.3075 172.508 44.0448 175.688C44.0678 175.783 44.1013 175.876 44.1446 175.964" stroke="#263238" stroke-miterlimit="10"/>
<path d="M128.94 137.28C128.94 137.28 137.257 137.772 139.461 140.214C141.665 142.656 164.145 172.508 163.407 175.688C163.384 175.783 163.351 175.876 163.308 175.964C163.441 176.689 163.394 177.436 163.169 178.138C161.94 181.809 143.37 195.51 143.37 195.51L132.096 191.101L144.714 174.851C137.994 169.605 129.162 162.232 129.162 162.232L128.94 137.28Z" fill="white"/>
<path d="M132.119 191.101L132.841 190.18V191.386L132.119 191.101Z" fill="#D2F446"/>
<path d="M130.691 142.295H131.305V137.518C131.773 137.572 132.296 137.649 132.841 137.741V142.295H137.073V138.801C137.341 138.9 137.603 139.008 137.841 139.116V142.295H139.162V139.93C139.269 140.022 139.369 140.122 139.461 140.214C139.791 140.59 140.605 141.604 141.727 143.063H141.466V148.754H142.08V143.516L143.616 145.528V148.754H146.043L146.611 149.522H143.616V155.22H147.855V151.204L148.623 152.256V155.22H149.937V154.061C150.705 155.121 151.473 156.191 152.241 157.271V161.687H152.855V158.131L154.391 160.312V161.687H155.343C155.528 161.948 155.704 162.202 155.873 162.455H154.368V168.192H158.607V166.595L159.375 167.777V168.192H159.636C159.805 168.453 159.967 168.707 160.12 168.96H159.352V174.659H160.666V169.889C161.53 171.248 162.3 172.664 162.97 174.129V174.659H163.177C163.269 174.907 163.333 175.164 163.369 175.427H162.97V178.499C162.171 179.758 161.199 180.898 160.082 181.885H159.352V182.577L158.584 183.283V181.885H154.368V186.931L152.64 188.352H152.218V188.69C151.45 189.32 150.682 189.934 149.914 190.518V188.352H148.6V191.547L147.832 192.146V188.352H143.616V194.166H142.08V188.352H141.466V194.166H139.86L139.162 193.889V188.352H137.841V193.375L137.073 193.075V188.352H134.285L134.876 187.584H137.073V184.75L137.841 183.767V187.607H139.162V182.016L141.466 179.044V181.064H142.08V178.253L143.616 176.279V181.064H147.855V175.365H144.323L144.737 174.828L144.445 174.597H147.855V168.96H143.616V174.006C143.109 173.614 142.595 173.238 142.08 172.792V168.952H141.466V172.293L139.162 170.45V168.914H137.841V169.344L136.374 168.192H137.073V162.493H132.864V165.297C132.296 164.836 131.781 164.406 131.328 164.029V162.493H130.714V163.523L129.178 162.271L128.932 137.318C128.932 137.318 129.631 137.364 130.683 137.48L130.691 142.295ZM159.398 181.087H160.712V175.388H159.398V181.087ZM154.391 181.087H158.63V175.388H154.368L154.391 181.087ZM154.391 174.62H158.63V168.96H154.368L154.391 174.62ZM152.241 187.553H152.855V181.855H152.241V187.553ZM152.241 181.087H152.855V175.388H152.241V181.087ZM152.241 174.62H152.855V168.96H152.241V174.62ZM152.241 168.154H152.855V162.455H152.241V168.154ZM148.623 187.553H149.937V181.855H148.623V187.553ZM148.623 181.087H149.937V175.388H148.623V181.087ZM148.623 174.62H149.937V168.96H148.623V174.62ZM148.623 168.154H149.937V162.455H148.623V168.154ZM148.623 161.687H149.937V155.988H148.623V161.687ZM142.08 181.855H141.466V187.553H142.08V181.855ZM143.616 181.855V187.553H147.855V181.855H143.616ZM143.616 168.192H147.855V162.493H143.616V168.192ZM143.616 161.725H147.855V156.027H143.616V161.725ZM141.466 168.192H142.08V162.493H141.466V168.192ZM141.466 161.725H142.08V156.027H141.466V161.725ZM141.466 155.259H142.08V149.56H141.466V155.259ZM137.841 168.192H139.162V162.493H137.841V168.192ZM137.841 161.725H139.162V156.027H137.841V161.725ZM137.841 155.259H139.162V149.56H137.841V155.259ZM137.841 148.792H139.162V143.101H137.841V148.792ZM132.864 161.687H137.096V155.988H132.864V161.687ZM132.864 155.22H137.096V149.522H132.864V155.22ZM132.864 148.754H137.096V143.063H132.864V148.754ZM130.714 161.687H131.328V155.988H130.714V161.687ZM130.714 155.22H131.328V149.522H130.714V155.22ZM130.714 148.754H131.328V143.063H130.714V148.754Z" fill="#D2F446"/>
<path d="M163.308 175.964C162.839 173.115 160.09 170.696 160.09 170.696" stroke="#263238" stroke-miterlimit="10"/>
<path d="M144.737 174.851L147.51 171.287" stroke="#263238" stroke-miterlimit="10"/>
<path d="M163.308 175.964C163.441 176.689 163.394 177.436 163.169 178.138C161.94 181.809 143.37 195.51 143.37 195.51L132.096 191.101L144.714 174.851" stroke="#263238" stroke-miterlimit="10"/>
<path d="M144.737 174.851C138.017 169.605 129.185 162.232 129.185 162.232L128.94 137.28C128.94 137.28 137.257 137.772 139.461 140.214C141.665 142.656 164.145 172.508 163.407 175.688C163.384 175.783 163.351 175.876 163.308 175.964" stroke="#263238" stroke-miterlimit="10"/>
<path d="M93.6806 131.167L77.0457 136.796L78.7584 203.827H128.417L130.621 135.084L110.07 129.746L93.6806 131.167Z" fill="#D2F446" stroke="#263238" stroke-miterlimit="10"/>
<path d="M77.9981 174.221L78.2285 183.276H129.078L129.37 174.221H77.9981Z" fill="white" stroke="#263238" stroke-miterlimit="10"/>
<path d="M128.571 199.181L128.855 190.126H78.4051L78.6355 199.181H128.571Z" fill="white" stroke="#263238" stroke-miterlimit="10"/>
<path d="M94.9017 139.73L104.686 166.395L113.249 139.238L94.9017 139.73Z" fill="white"/>
<path d="M110.853 143.117V146.849L112.389 141.98V139.261H110.853V142.333H106.614V139.4H105.846V142.31H104.525V139.469L102.221 139.53V142.349H101.606V139.546L100.07 139.592V142.349H97.6512C97.4592 142.602 97.2672 142.856 97.0829 143.117H100.07V148.815H98.2349L98.519 149.583H100.055V153.823L101.591 158.008V156.05H102.205V159.683L103.956 164.452L104.509 164.006V162.516H105.83V162.724L106.598 160.289V156.05H107.935L108.18 155.282H106.598V149.583H109.978L110.216 148.815H106.598V143.117H110.853ZM102.221 155.282H101.606V149.583H102.221V155.282ZM102.221 148.815H101.606V143.117H102.221V148.815ZM105.846 161.748H104.525V156.05H105.846V161.748ZM105.846 155.282H104.525V149.583H105.846V155.282ZM105.846 148.815H104.525V143.117H105.846V148.815Z" fill="#D2F446"/>
<path d="M113.004 140.037L113.249 139.238L113.004 139.246V140.037Z" fill="#D2F446"/>
<path d="M94.9017 139.73L104.686 166.395L113.249 139.238L94.9017 139.73Z" stroke="#263238" stroke-miterlimit="10"/>
<path d="M133.402 210.432H71.3242C70.2935 210.432 69.4579 211.268 69.4579 212.298V212.483C69.4579 213.513 70.2935 214.349 71.3242 214.349H133.402C134.432 214.349 135.268 213.513 135.268 212.483V212.298C135.268 211.268 134.432 210.432 133.402 210.432Z" fill="#B0B0B0" stroke="#263238" stroke-miterlimit="10"/>
<path d="M104.064 321.615H101.645V351.483H104.064V321.615Z" fill="#263238" stroke="#263238" stroke-miterlimit="10"/>
<path d="M116.92 214.103C116.92 207.483 110.623 205.786 102.851 205.786C95.0784 205.786 88.7885 207.483 88.7885 214.103C88.8199 215.822 89.2462 217.51 90.0346 219.038C90.823 220.565 91.9523 221.891 93.335 222.912C94.45 223.757 95.358 224.845 95.99 226.093C96.6221 227.341 96.9617 228.717 96.983 230.116V323.766H108.81V230.07C108.831 228.678 109.166 227.309 109.791 226.065C110.416 224.821 111.315 223.736 112.42 222.889C113.79 221.865 114.908 220.54 115.688 219.018C116.468 217.495 116.89 215.814 116.92 214.103Z" fill="#B0B0B0" stroke="#263238" stroke-miterlimit="10"/>
<path d="M110.469 205.048H94.5024C92.8312 205.048 91.4765 206.403 91.4765 208.074V224.218C91.4765 225.889 92.8312 227.244 94.5024 227.244H110.469C112.14 227.244 113.495 225.889 113.495 224.218V208.074C113.495 206.403 112.14 205.048 110.469 205.048Z" fill="#D2F446" stroke="#263238" stroke-miterlimit="10"/>
<path d="M93.1661 271.342H112.627L109.079 304.143H96.7142L93.1661 271.342Z" fill="#D2F446" stroke="#263238" stroke-miterlimit="10"/>
<path d="M144.806 196.731C144.806 196.731 140.406 191.839 135.759 189.88C131.113 187.922 125.007 188.905 125.007 188.905L120.852 204.557C120.852 204.557 117.427 205.786 116.936 207.252C116.59 208.297 117.105 212.698 117.435 215.14C117.498 215.598 117.725 216.018 118.074 216.321C118.423 216.625 118.869 216.792 119.332 216.791H129.416C129.416 216.791 132.104 217.283 132.104 214.833V210.678C132.104 210.678 133.816 209.211 134.062 208.228C134.215 207.586 134.297 206.929 134.308 206.269L144.806 196.731Z" fill="#D2F446" stroke="#263238" stroke-miterlimit="10"/>
<path d="M120.1 216.545L119.37 208.228" stroke="#263238" stroke-miterlimit="10"/>
<path d="M123.525 216.791V208.719" stroke="#263238" stroke-miterlimit="10"/>
<path d="M127.442 216.3V208.965" stroke="#263238" stroke-miterlimit="10"/>
<path d="M60.5338 196.731C60.5338 196.731 64.9421 191.839 69.5885 189.88C74.2349 187.922 80.3405 188.905 80.3405 188.905L84.48 204.557C84.48 204.557 87.9053 205.786 88.3968 207.252C88.7424 208.297 88.2202 212.698 87.8976 215.14C87.8345 215.598 87.6075 216.018 87.2587 216.321C86.91 216.625 86.463 216.792 86.0006 216.791H75.9475C75.9475 216.791 73.2595 217.283 73.2595 214.833V210.678C73.2595 210.678 71.5469 209.211 71.3011 208.228C71.1486 207.586 71.0662 206.929 71.0554 206.269L60.5338 196.731Z" fill="#D2F446" stroke="#263238" stroke-miterlimit="10"/>
<path d="M85.248 216.545L85.9776 208.228" stroke="#263238" stroke-miterlimit="10"/>
<path d="M81.8227 216.791V208.719" stroke="#263238" stroke-miterlimit="10"/>
<path d="M77.9059 216.3V208.965" stroke="#263238" stroke-miterlimit="10"/>
<path d="M97.1289 142.495C97.1289 142.495 99.5481 144.622 100.777 144.622H101.998C101.998 144.622 102.973 146.58 104.44 146.58C105.907 146.58 106.644 144.622 106.644 144.622C107.809 144.751 108.988 144.582 110.07 144.131C111.537 143.401 112.52 140.705 112.52 140.705L96.3917 140.951L97.1289 142.495Z" fill="white" stroke="#263238" stroke-miterlimit="10"/>
<path d="M118.733 121.26C118.733 131.32 112.735 139.484 103.373 139.484C94.0109 139.484 88.0128 131.32 88.0128 121.26C88.0128 111.199 94.0109 100.831 103.373 100.831C112.735 100.831 118.733 111.191 118.733 121.26Z" fill="#D2F446" stroke="#263238" stroke-miterlimit="10"/>
<path d="M90.985 132.388C90.985 132.388 103.219 136.796 115.699 132.388L114.893 138.294C114.708 139.465 114.111 140.531 113.21 141.301C112.309 142.071 111.163 142.495 109.978 142.495H97.129C96.0065 142.495 94.917 142.116 94.0372 141.419C93.1575 140.722 92.5392 139.747 92.2829 138.655L90.985 132.388Z" fill="#D2F446" stroke="#263238" stroke-miterlimit="10"/>
<path d="M95.639 133.371V129.869C95.6334 129.079 95.8454 128.303 96.2518 127.625C96.6582 126.948 97.2434 126.396 97.943 126.029L103.688 123.072L108.196 126.19C108.766 126.586 109.232 127.114 109.555 127.729C109.877 128.345 110.046 129.028 110.047 129.723V133.348" stroke="#263238" stroke-miterlimit="10"/>
<path d="M103.419 106.214H103.265C102.43 106.214 101.752 106.892 101.752 107.727V126.966C101.752 127.801 102.43 128.479 103.265 128.479H103.419C104.254 128.479 104.932 127.801 104.932 126.966V107.727C104.932 106.892 104.254 106.214 103.419 106.214Z" fill="#D2F446" stroke="#263238" stroke-miterlimit="10"/>
</svg>
