<svg width="403" height="404" viewBox="0 0 403 404" fill="none" xmlns="http://www.w3.org/2000/svg">
<path d="M110.68 56.7216C110.68 56.7216 54.5017 96.0873 30.9746 147.921C7.44744 199.754 18.3526 260.604 61.3527 300.948C104.353 341.291 173.572 325.479 236.255 346.058C298.937 366.638 362.797 351.642 382.06 286.751C401.323 221.861 356.268 204.925 339.27 135.34C322.271 65.755 244.347 -28.7325 110.68 56.7216Z" fill="#D2F446" fill-opacity="0.24"/>
<path d="M203.112 85.648H140.244V168.872H203.112V85.648Z" stroke="#D2F446" stroke-linecap="round" stroke-linejoin="round"/>
<path d="M195.794 95.344H147.571V159.176H195.794V95.344Z" stroke="#D2F446" stroke-linecap="round" stroke-linejoin="round"/>
<path d="M108.81 128.472H45.942V211.696H108.81V128.472Z" stroke="#D2F446" stroke-linecap="round" stroke-linejoin="round"/>
<path d="M101.492 138.168H53.2686V202H101.492V138.168Z" stroke="#D2F446" stroke-linecap="round" stroke-linejoin="round"/>
<path d="M296.991 150.004C316.941 148.005 331.49 130.173 329.487 110.175C327.484 90.1765 309.687 75.5847 289.738 77.5832C269.788 79.5817 255.239 97.4136 257.242 117.412C259.245 137.41 277.041 152.002 296.991 150.004Z" stroke="#D2F446" stroke-linecap="round" stroke-linejoin="round"/>
<path d="M297.768 143.643C314.2 141.193 325.539 125.853 323.095 109.38C320.651 92.9077 305.349 81.5401 288.917 83.9902C272.485 86.4403 261.146 101.78 263.59 118.253C266.034 134.726 281.336 146.093 297.768 143.643Z" stroke="#D2F446" stroke-linecap="round" stroke-linejoin="round"/>
<path d="M274.161 113.791H293.352V141.545" stroke="#D2F446" stroke-linecap="round" stroke-linejoin="round"/>
<path d="M268.962 287.09L281.697 307.654C282.066 308.25 282.27 308.934 282.287 309.636C282.304 310.337 282.133 311.031 281.793 311.644C281.452 312.257 280.955 312.768 280.351 313.123C279.748 313.479 279.06 313.666 278.36 313.666H252.351C253.049 313.666 253.734 313.479 254.337 313.125C254.939 312.771 255.436 312.262 255.777 311.651C256.118 311.041 256.29 310.35 256.276 309.65C256.261 308.95 256.061 308.267 255.695 307.67L243.412 287.551L268.962 287.09Z" fill="white" stroke="#263238" stroke-linecap="round" stroke-linejoin="round"/>
<path d="M268.962 287.09L243.372 287.551L248.111 295.292H274.04L268.962 287.09Z" fill="#263238" stroke="#263238" stroke-linecap="round" stroke-linejoin="round"/>
<path d="M200.928 291.672H305.015C306.31 291.672 307.36 290.619 307.36 289.321V201.927C307.36 200.629 306.31 199.576 305.015 199.576H200.928C199.632 199.576 198.582 200.629 198.582 201.927V289.321C198.582 290.619 199.632 291.672 200.928 291.672Z" fill="white" stroke="#263238" stroke-linecap="round" stroke-linejoin="round"/>
<path d="M196.809 291.672H300.896C302.191 291.672 303.241 290.619 303.241 289.321V201.927C303.241 200.629 302.191 199.576 300.896 199.576H196.809C195.514 199.576 194.464 200.629 194.464 201.927V289.321C194.464 290.619 195.514 291.672 196.809 291.672Z" fill="white" stroke="#263238" stroke-linecap="round" stroke-linejoin="round"/>
<path d="M198.123 199.576H299.59C300.07 199.576 300.546 199.671 300.989 199.855C301.433 200.04 301.836 200.31 302.175 200.651C302.514 200.992 302.783 201.396 302.966 201.841C303.149 202.286 303.242 202.763 303.241 203.244V275.156H194.431V203.244C194.431 202.76 194.527 202.28 194.713 201.833C194.899 201.386 195.171 200.98 195.515 200.639C195.858 200.298 196.265 200.028 196.713 199.846C197.16 199.663 197.64 199.572 198.123 199.576Z" fill="#263238" stroke="#263238" stroke-linecap="round" stroke-linejoin="round"/>
<path d="M199.034 270.139H298.671V203.244H199.034V270.139Z" fill="white" stroke="#263238" stroke-linecap="round" stroke-linejoin="round"/>
<path d="M232.934 210.581H234.127V218.16H232.934V210.581Z" fill="#263238"/>
<path d="M236.053 212.682V218.16H234.981V210.557H236.48L237.706 215.106V210.557H238.769V218.16H237.544L236.053 212.682Z" fill="#263238"/>
<path d="M241.421 216.786L242.332 210.581H243.412L242.259 218.16H240.478L239.309 210.557H240.51L241.421 216.786Z" fill="#263238"/>
<path d="M243.871 212.407C243.855 212.159 243.889 211.909 243.973 211.675C244.056 211.441 244.187 211.226 244.357 211.044C244.526 210.862 244.731 210.717 244.959 210.618C245.187 210.519 245.433 210.468 245.681 210.468C245.929 210.468 246.175 210.519 246.403 210.618C246.631 210.717 246.836 210.862 247.005 211.044C247.175 211.226 247.306 211.441 247.389 211.675C247.472 211.909 247.507 212.159 247.49 212.407V216.358C247.507 216.607 247.472 216.856 247.389 217.09C247.306 217.325 247.175 217.539 247.005 217.721C246.836 217.903 246.631 218.048 246.403 218.147C246.175 218.246 245.929 218.297 245.681 218.297C245.433 218.297 245.187 218.246 244.959 218.147C244.731 218.048 244.526 217.903 244.357 217.721C244.187 217.539 244.056 217.325 243.973 217.09C243.889 216.856 243.855 216.607 243.871 216.358V212.407ZM245.064 216.447C245.064 216.988 245.306 217.19 245.685 217.19C246.064 217.19 246.298 216.988 246.298 216.447V212.342C246.298 211.793 246.064 211.591 245.685 211.591C245.306 211.591 245.064 211.793 245.064 212.342V216.447Z" fill="#263238"/>
<path d="M248.248 210.581H249.441V218.16H248.248V210.581Z" fill="#263238"/>
<path d="M253.777 215.348V216.358C253.777 217.578 253.173 218.273 252.004 218.273C251.754 218.293 251.502 218.256 251.268 218.165C251.034 218.073 250.824 217.93 250.653 217.746C250.481 217.562 250.354 217.342 250.279 217.102C250.205 216.861 250.186 216.607 250.223 216.358V212.407C250.186 212.158 250.205 211.904 250.279 211.664C250.354 211.423 250.481 211.203 250.653 211.019C250.824 210.835 251.034 210.692 251.268 210.601C251.502 210.509 251.754 210.472 252.004 210.492C253.173 210.492 253.777 211.187 253.777 212.407V213.142H252.657V212.334C252.657 211.785 252.415 211.583 252.036 211.583C251.657 211.583 251.416 211.785 251.416 212.334V216.439C251.416 216.98 251.657 217.174 252.036 217.174C252.415 217.174 252.657 216.98 252.657 216.439V215.348H253.777Z" fill="#263238"/>
<path d="M255.695 213.789H257.307V214.871H255.695V217.102H257.759V218.16H254.535V210.557H257.759V211.696H255.695V213.789Z" fill="#263238"/>
<path d="M295.141 221.19H203.177V226.894H295.141V221.19Z" fill="#D2F446"/>
<path d="M203.475 263.828V230.797H294.545V265.032" stroke="#263238" stroke-miterlimit="10"/>
<path d="M203.781 241.907H294.246" stroke="#263238" stroke-miterlimit="10"/>
<path d="M269.381 230.555V265.032" stroke="#263238" stroke-miterlimit="10"/>
<path d="M154.438 309.06H151.27V310.118H154.438V309.06Z" fill="white" stroke="#263238" stroke-linecap="round" stroke-linejoin="round"/>
<path d="M158.653 309.06H155.485V310.118H158.653V309.06Z" fill="white" stroke="#263238" stroke-linecap="round" stroke-linejoin="round"/>
<path d="M162.877 309.06H159.709V310.118H162.877V309.06Z" fill="white" stroke="#263238" stroke-linecap="round" stroke-linejoin="round"/>
<path d="M167.092 309.06H163.924V310.118H167.092V309.06Z" fill="white" stroke="#263238" stroke-linecap="round" stroke-linejoin="round"/>
<path d="M171.315 309.06H168.148V310.118H171.315V309.06Z" fill="white" stroke="#263238" stroke-linecap="round" stroke-linejoin="round"/>
<path d="M175.531 309.06H172.363V310.118H175.531V309.06Z" fill="white" stroke="#263238" stroke-linecap="round" stroke-linejoin="round"/>
<path d="M179.754 309.06H176.587V310.118H179.754V309.06Z" fill="white" stroke="#263238" stroke-linecap="round" stroke-linejoin="round"/>
<path d="M183.97 309.06H180.802V310.118H183.97V309.06Z" fill="white" stroke="#263238" stroke-linecap="round" stroke-linejoin="round"/>
<path d="M188.193 309.06H185.025V310.118H188.193V309.06Z" fill="white" stroke="#263238" stroke-linecap="round" stroke-linejoin="round"/>
<path d="M192.408 309.06H189.241V310.118H192.408V309.06Z" fill="white" stroke="#263238" stroke-linecap="round" stroke-linejoin="round"/>
<path d="M196.632 309.06H193.464V310.118H196.632V309.06Z" fill="white" stroke="#263238" stroke-linecap="round" stroke-linejoin="round"/>
<path d="M200.847 309.06H197.68V310.118H200.847V309.06Z" fill="white" stroke="#263238" stroke-linecap="round" stroke-linejoin="round"/>
<path d="M205.071 309.06H201.903V310.118H205.071V309.06Z" fill="white" stroke="#263238" stroke-linecap="round" stroke-linejoin="round"/>
<path d="M209.286 309.06H206.118V310.118H209.286V309.06Z" fill="white" stroke="#263238" stroke-linecap="round" stroke-linejoin="round"/>
<path d="M213.509 309.06H210.342V310.118H213.509V309.06Z" fill="white" stroke="#263238" stroke-linecap="round" stroke-linejoin="round"/>
<path d="M217.725 309.06H214.557V310.118H217.725V309.06Z" fill="white" stroke="#263238" stroke-linecap="round" stroke-linejoin="round"/>
<path d="M221.948 309.06H218.781V310.118H221.948V309.06Z" fill="white" stroke="#263238" stroke-linecap="round" stroke-linejoin="round"/>
<path d="M226.164 309.06H222.996V310.118H226.164V309.06Z" fill="white" stroke="#263238" stroke-linecap="round" stroke-linejoin="round"/>
<path d="M230.387 309.06H227.219V310.118H230.387V309.06Z" fill="white" stroke="#263238" stroke-linecap="round" stroke-linejoin="round"/>
<path d="M234.602 309.06H231.435V310.118H234.602V309.06Z" fill="white" stroke="#263238" stroke-linecap="round" stroke-linejoin="round"/>
<path d="M238.826 309.06H235.658V310.118H238.826V309.06Z" fill="white" stroke="#263238" stroke-linecap="round" stroke-linejoin="round"/>
<path d="M241.123 310.272H149.634V313.69H241.123V310.272Z" fill="white" stroke="#263238" stroke-linecap="round" stroke-linejoin="round"/>
<path d="M241.123 310.272H218.805V313.69H241.123V310.272Z" fill="#263238" stroke="#263238" stroke-linecap="round" stroke-linejoin="round"/>
<path d="M329.557 236.445V224.624H321.094V236.445H315.46L325.326 253.575L335.183 236.445H329.557Z" fill="#D2F446"/>
<path d="M264.368 194.324V193.112" stroke="#263238" stroke-miterlimit="10"/>
<path d="M264.368 190.728V182.204C264.368 180.704 264.962 179.265 266.021 178.205C267.079 177.144 268.514 176.548 270.01 176.548H319.982C321.478 176.548 322.913 177.144 323.972 178.205C325.03 179.265 325.624 180.704 325.624 182.204V218.968" stroke="#D2F446" stroke-miterlimit="10" stroke-dasharray="2.95 2.95"/>
<path d="M325.624 220.18V221.392" stroke="#263238" stroke-miterlimit="10"/>
<path d="M296.407 260.58H347.588C348.924 260.58 350.205 261.112 351.15 262.059C352.094 263.006 352.625 264.291 352.625 265.63V306.442H291.369V265.63C291.369 264.291 291.9 263.006 292.844 262.059C293.789 261.112 295.07 260.58 296.407 260.58Z" fill="#263238" stroke="#263238" stroke-miterlimit="10"/>
<path d="M349.401 254.924H294.593V306.442H349.401V254.924Z" fill="white" stroke="#263238" stroke-miterlimit="10"/>
<path d="M263.449 279.641H359.532C360.349 279.641 361.132 279.966 361.71 280.545C362.287 281.124 362.611 281.909 362.611 282.727V313.31H263.473V279.641H263.449Z" fill="#263238" stroke="#263238" stroke-miterlimit="10"/>
<path d="M250.714 279.641H346.024C346.535 279.641 347.025 279.844 347.386 280.206C347.747 280.568 347.95 281.06 347.95 281.572V313.31H248.812V281.572C248.812 281.064 249.012 280.576 249.368 280.215C249.724 279.853 250.208 279.647 250.714 279.641Z" fill="#636363" stroke="#263238" stroke-miterlimit="10"/>
<path d="M257.324 279.641H339.423V301.683C339.423 303.489 338.707 305.222 337.433 306.499C336.158 307.777 334.43 308.494 332.628 308.494H264.118C262.316 308.494 260.588 307.777 259.314 306.499C258.039 305.222 257.324 303.489 257.324 301.683V279.641Z" fill="#636363" stroke="#263238" stroke-miterlimit="10"/>
<path d="M324.23 279.641H272.517V313.31H324.23V279.641Z" fill="#263238" stroke="#263238" stroke-miterlimit="10"/>
<path d="M277.046 297.158C277.046 297.158 278.803 305.537 274.838 308.632C270.872 311.726 251.069 311.056 251.069 311.056H315.783C315.783 311.056 323.706 313.043 323.262 298.701L277.046 297.158Z" fill="white" stroke="#263238" stroke-miterlimit="10"/>
<path d="M316.726 309.803H275.297L277.562 308.535H318.354L316.726 309.803Z" fill="#D2F446"/>
<path d="M280.689 300.107C280.689 305.23 279.48 307.113 279.48 307.113H319.402C319.402 307.113 321.151 306.038 321.554 300.245" stroke="#A3A3A3" stroke-miterlimit="10"/>
<path d="M280.158 304.689H320.611" stroke="#A3A3A3" stroke-miterlimit="10"/>
<path d="M280.561 302.127H321.151" stroke="#A3A3A3" stroke-miterlimit="10"/>
<path d="M306.635 306.975C306.635 306.975 308.65 305.093 308.513 300.107" stroke="#A3A3A3" stroke-miterlimit="10"/>
<path d="M324.23 279.641H272.517V298.96H324.23V279.641Z" fill="#636363" stroke="#263238" stroke-miterlimit="10"/>
<path d="M324.222 311.096H267.826V313.31H324.222V311.096Z" fill="#263238" stroke="#263238" stroke-miterlimit="10"/>
<path d="M270.647 279.641H326.091V282.315C326.089 283.726 325.53 285.079 324.537 286.078C323.543 287.077 322.195 287.642 320.788 287.648H275.982C274.569 287.648 273.214 287.085 272.215 286.084C271.216 285.082 270.655 283.724 270.655 282.307V279.633L270.647 279.641Z" fill="#263238" stroke="#263238" stroke-miterlimit="10"/>
<path d="M344.75 285.652C344.75 285.996 344.649 286.332 344.458 286.617C344.268 286.903 343.997 287.126 343.681 287.257C343.364 287.389 343.016 287.423 342.679 287.356C342.343 287.289 342.034 287.124 341.792 286.881C341.55 286.638 341.385 286.328 341.318 285.991C341.251 285.654 341.285 285.305 341.416 284.987C341.548 284.67 341.77 284.399 342.055 284.208C342.34 284.017 342.675 283.915 343.017 283.915C343.477 283.915 343.918 284.098 344.243 284.424C344.568 284.75 344.75 285.191 344.75 285.652Z" fill="white" stroke="#263238" stroke-miterlimit="10"/>
<path d="M344.75 293.401C344.75 293.745 344.649 294.08 344.458 294.366C344.268 294.652 343.997 294.874 343.681 295.006C343.364 295.137 343.016 295.172 342.679 295.105C342.343 295.038 342.034 294.872 341.792 294.629C341.55 294.386 341.385 294.077 341.318 293.74C341.251 293.403 341.285 293.054 341.416 292.736C341.548 292.419 341.77 292.147 342.055 291.957C342.34 291.766 342.675 291.664 343.017 291.664C343.477 291.664 343.918 291.847 344.243 292.173C344.568 292.498 344.75 292.94 344.75 293.401Z" fill="white" stroke="#263238" stroke-miterlimit="10"/>
<path d="M343.429 310.555H342.381C342 310.555 341.635 310.403 341.366 310.134C341.097 309.864 340.946 309.498 340.946 309.117C340.946 308.734 341.097 308.368 341.366 308.097C341.635 307.826 341.999 307.672 342.381 307.67H343.429C343.618 307.67 343.805 307.708 343.979 307.78C344.154 307.853 344.313 307.96 344.446 308.094C344.579 308.229 344.685 308.388 344.756 308.564C344.828 308.739 344.864 308.927 344.863 309.117C344.863 309.498 344.712 309.864 344.443 310.134C344.174 310.403 343.809 310.555 343.429 310.555Z" fill="#263238" stroke="#263238" stroke-miterlimit="10"/>
<path d="M297.43 357.758V322.602H281.979V357.879" fill="white"/>
<path d="M297.43 357.758V322.602H281.979V357.879" stroke="#263238" stroke-linecap="round" stroke-linejoin="round"/>
<path d="M297.438 322.602H289.709V358.194H297.438V322.602Z" fill="#263238" stroke="#263238" stroke-linecap="round" stroke-linejoin="round"/>
<path d="M366.641 357.758V322.602H351.182V357.879" fill="white"/>
<path d="M366.641 357.758V322.602H351.182V357.879" stroke="#263238" stroke-linecap="round" stroke-linejoin="round"/>
<path d="M366.641 322.602H358.912V358.194H366.641V322.602Z" fill="#263238" stroke="#263238" stroke-linecap="round" stroke-linejoin="round"/>
<path d="M370.76 316.582H55.614V328.848H370.76V316.582Z" fill="white" stroke="#263238" stroke-miterlimit="10"/>
<path d="M370.76 316.582H294.932V328.848H370.76V316.582Z" fill="#263238" stroke="#263238" stroke-miterlimit="10"/>
<path d="M370.76 313.237H55.614V317.544H370.76V313.237Z" fill="white" stroke="#263238" stroke-miterlimit="10"/>
<path d="M370.76 313.237H301.807V317.544H370.76V313.237Z" fill="#263238" stroke="#263238" stroke-miterlimit="10"/>
<path d="M156.009 145.497C156.009 145.497 156.582 150.482 156.203 152.397C155.824 154.312 153.72 155.467 153.906 156.809C154.091 158.15 158.879 165.05 156.582 167.353C155.416 168.621 153.977 169.605 152.374 170.229L150.851 173.72C150.851 173.72 141.671 179.667 138.036 181.202C134.4 182.737 137.649 190.017 137.649 190.017L128.275 187.908L125.986 198.768C125.986 198.768 118.909 191.86 109.342 188.797C99.7747 185.735 96.1477 186.115 96.1477 186.115C97.6984 182.279 98.8517 178.293 99.5893 174.221C100.927 167.127 101.693 151.403 101.693 150.256C101.693 149.108 107.811 131.47 113.17 128.011C118.53 124.553 140.325 128.399 151.802 131.243C163.279 134.088 158.306 142.362 158.306 142.362L156.009 145.497Z" fill="white" stroke="#263238" stroke-miterlimit="10"/>
<path d="M155.63 151.629C155.63 151.629 155.058 149.52 152.568 150.288C150.077 151.056 149.505 152.397 150.464 152.397C151.423 152.397 153.688 151.25 154.293 152.397C154.897 153.544 155.437 152.971 155.63 151.629Z" fill="#263238" stroke="#263238" stroke-miterlimit="10"/>
<path d="M152.189 158.53L151.036 159.111C151.036 159.111 152.761 160.259 151.995 162.941C151.23 165.624 150.464 167.927 150.464 167.927" stroke="#263238" stroke-miterlimit="10"/>
<path d="M145.298 140.317C145.298 140.317 147.022 147.589 146.257 149.141C145.491 150.692 139.752 152.785 139.18 154.894C138.608 157.002 137.463 168.314 137.842 170.423C138.221 172.532 139.18 176.176 140.139 176.176C141.098 176.176 148.199 170.803 150.851 170.609C153.503 170.415 152.374 175.215 151.036 176.75C149.698 178.285 147.006 178.665 147.216 180.394C147.425 182.123 150.851 188.062 147.022 193.241C143.194 198.421 138.801 197.281 134.207 193.621C129.613 189.961 128.855 183.844 130.177 180.394C131.499 176.944 133.619 167.927 133.812 163.903C134.006 159.879 133.046 154.7 130.177 155.823C127.308 156.946 129.605 168.29 127.501 170.779C125.397 173.268 116.975 180.37 114.686 180.37C112.397 180.37 99.952 174.811 99.5732 174.229C99.1944 173.647 100.718 147.961 99.1944 137.804C97.671 127.648 101.298 120.352 112.961 116.901C124.624 113.451 145.886 119.802 145.886 119.802C145.886 119.802 143.782 116.352 148.368 114.817C152.955 113.282 163.86 117.499 164.625 124.408C165.391 131.316 161.401 131.502 161.95 133.797C162.498 136.091 169.792 140.511 165.98 144.155C162.167 147.799 156.033 145.497 156.033 145.497L155.268 139.55C155.268 139.55 151.23 134.564 145.298 140.317Z" fill="#263238" stroke="#263238" stroke-miterlimit="10"/>
<path d="M146.257 154.7L128.089 154.126C128.089 154.126 124.261 155.079 123.882 157.188C123.503 159.297 123.116 164.283 124.261 164.46C125.405 164.638 125.414 163.313 125.414 161.584C125.414 159.855 125.414 157.172 126.937 156.219C128.25 155.562 129.68 155.169 131.144 155.063L146.644 156.598L161.152 157.754V155.257L146.257 154.7Z" fill="#5E5E5E" stroke="#263238" stroke-miterlimit="10"/>
<path d="M133.248 162.174C133.248 162.174 133.828 156.041 130.765 154.312C127.703 152.583 125.599 157.382 125.414 161.584C125.228 165.785 128.089 170.981 131.725 170.019" fill="white"/>
<path d="M133.248 162.174C133.248 162.174 133.828 156.041 130.765 154.312C127.703 152.583 125.599 157.382 125.414 161.584C125.228 165.785 128.089 170.981 131.725 170.019" stroke="#263238" stroke-miterlimit="10"/>
<path d="M161.2 157.77C161.2 157.77 161.579 162.174 159.862 164.283C159.211 165.049 158.434 165.7 157.565 166.206" stroke="#263238" stroke-miterlimit="10"/>
<path d="M214.509 193.468L206.82 220.447L201.057 235.863L194.81 252.476C194.81 252.476 177.505 252.241 169.824 250.795C162.143 249.349 148.304 244.42 148.304 244.42C155.137 233.488 160.426 221.659 164.021 209.272C167.285 197.831 169.816 188.652 169.816 188.652L214.509 193.468Z" fill="white" stroke="#263238" stroke-miterlimit="10"/>
<path d="M175.998 205.83C175.998 205.83 170.243 226.539 167.89 230.732L195.858 234.926C195.858 234.926 201.089 225.747 205.014 209.757L175.998 205.83Z" stroke="#A3A3A3" stroke-miterlimit="10"/>
<path d="M174.426 210.549L203.451 214.476" stroke="#A3A3A3" stroke-miterlimit="10"/>
<path d="M173.121 217.36L201.008 221.069" stroke="#A3A3A3" stroke-miterlimit="10"/>
<path d="M170.824 224.285L198.808 228.22" stroke="#A3A3A3" stroke-miterlimit="10"/>
<path d="M189.063 226.919L183.575 242.004L192.465 243.838L195.608 233.35" stroke="#A3A3A3" stroke-miterlimit="10"/>
<path d="M157.17 232.3L168.672 234.401" stroke="#A3A3A3" stroke-miterlimit="10"/>
<path d="M156.388 233.876L167.89 235.976" stroke="#A3A3A3" stroke-miterlimit="10"/>
<path d="M155.598 235.451L167.108 237.544" stroke="#A3A3A3" stroke-miterlimit="10"/>
<path d="M171.033 190.534L167.567 202.582L208.029 207.454L211.954 195.399L171.033 190.534Z" fill="#D2F446"/>
<path d="M172.484 192.91L173.362 192.999L171.75 198.655L170.872 198.558L172.484 192.91Z" fill="#263238"/>
<path d="M174.37 194.728L173.217 198.768L172.411 198.687L174.023 193.031L175.12 193.144L175.071 196.603L176.022 193.241L176.828 193.322L175.216 198.938L174.314 198.849L174.37 194.728Z" fill="#263238"/>
<path d="M177.465 198.138L179.44 193.621L180.246 193.71L177.828 199.237L176.514 199.099L177.247 193.395L178.134 193.484L177.465 198.138Z" fill="#263238"/>
<path d="M180.189 195.092C180.261 194.695 180.481 194.342 180.805 194.104C181.129 193.866 181.532 193.763 181.93 193.815C182.793 193.904 183.115 194.469 182.857 195.366L182.051 198.283C181.984 198.68 181.765 199.034 181.442 199.273C181.119 199.511 180.716 199.614 180.318 199.56C179.456 199.471 179.125 198.913 179.383 198.008L180.189 195.092ZM180.189 198.162C180.077 198.558 180.189 198.728 180.488 198.76C180.786 198.792 180.987 198.655 181.1 198.251L181.963 195.221C182.075 194.817 181.963 194.647 181.664 194.615C181.366 194.583 181.165 194.72 181.052 195.124L180.189 198.162Z" fill="#263238"/>
<path d="M183.808 194.074L184.687 194.162L183.075 199.818L182.196 199.73L183.808 194.074Z" fill="#263238"/>
<path d="M186.879 198.017L186.662 198.768C186.6 199.163 186.386 199.517 186.067 199.756C185.748 199.994 185.348 200.098 184.953 200.045C184.09 199.956 183.792 199.39 184.042 198.493L184.848 195.576C184.912 195.181 185.127 194.825 185.447 194.586C185.767 194.346 186.168 194.24 186.565 194.292C187.427 194.381 187.725 194.946 187.476 195.843L187.314 196.392L186.508 196.304L186.678 195.698C186.799 195.302 186.678 195.132 186.379 195.1C186.081 195.067 185.888 195.205 185.767 195.609L184.904 198.639C184.792 199.043 184.904 199.204 185.211 199.237C185.517 199.269 185.702 199.14 185.815 198.736L186.049 197.928L186.879 198.017Z" fill="#263238"/>
<path d="M188.604 197.007L189.813 197.136L189.579 197.944L188.378 197.823L187.911 199.439L189.426 199.6L189.2 200.408L186.782 200.158L188.394 194.542L190.812 194.793L190.587 195.601L189.063 195.439L188.604 197.007Z" fill="#263238"/>
<path d="M207.142 198.994C207.217 199.606 207.105 200.227 206.82 200.774C206.535 201.32 206.09 201.767 205.546 202.054C205.001 202.342 204.383 202.456 203.772 202.382C203.161 202.308 202.587 202.05 202.126 201.641C201.665 201.233 201.339 200.693 201.192 200.094C201.045 199.495 201.082 198.866 201.3 198.289C201.519 197.712 201.907 197.216 202.413 196.865C202.92 196.515 203.52 196.328 204.136 196.328C204.887 196.284 205.624 196.539 206.188 197.039C206.751 197.539 207.094 198.242 207.142 198.994Z" fill="white"/>
<path d="M178.473 276.805C178.473 276.805 185.678 259.707 186.396 252.961C187.113 246.214 187.596 239.952 189.281 238.029C190.966 236.106 194.81 226.951 195.528 224.293C196.245 221.634 197.946 218.992 199.848 220.915C201.75 222.838 201.057 227.42 200.331 229.108C199.606 230.797 198.647 233.447 198.647 233.447L203.692 227.904L206.82 220.439C206.82 220.439 209.463 220.439 209.939 222.863C210.414 225.287 213.308 228.882 212.582 231.048C212.056 232.421 211.027 233.543 209.705 234.183C209.705 234.183 210.906 240.202 210.664 242.368C210.118 245.212 208.584 247.771 206.336 249.591C203.918 251.514 197.212 257.776 197.212 257.776C197.212 257.776 200.573 283.309 197.212 295.833C193.851 308.357 187.838 312.211 183.51 312.938C179.182 313.666 170.783 304.05 170.783 304.05C170.783 304.05 179.674 299.445 178.473 276.805Z" fill="white" stroke="#263238" stroke-miterlimit="10"/>
<path d="M209.705 234.175L205.86 238.029" stroke="#263238" stroke-miterlimit="10"/>
<path d="M203.692 227.913L207.537 224.778" stroke="#263238" stroke-miterlimit="10"/>
<path d="M93.496 181.259C93.496 181.259 100.21 179.643 110.422 183.957C117.901 186.988 124.472 191.903 129.5 198.227C131.71 201.206 133.515 204.467 134.868 207.923C134.868 207.923 95.914 192.845 91.618 192.845H81.946C81.946 192.845 87.048 181.8 93.496 181.259Z" fill="white" stroke="#263238" stroke-miterlimit="10"/>
<path d="M227.292 358.211C196.124 330.739 147.498 330.739 147.498 330.739L140.244 323.741H53.9375V358.607" fill="white"/>
<path d="M227.292 358.211C196.124 330.739 147.498 330.739 147.498 330.739L140.244 323.741H53.9375V358.607" stroke="#263238" stroke-miterlimit="10"/>
<path d="M145.62 332.355C145.62 332.355 141.59 349.864 133.796 357.403" stroke="#263238" stroke-miterlimit="10"/>
<path d="M143.202 331.013C140.164 337.914 135.223 343.801 128.96 347.981" stroke="#263238" stroke-miterlimit="10"/>
<path d="M83.018 189.613C83.018 189.613 88.9259 188.264 100.484 190.688C112.042 193.112 128.96 203.075 136.48 206.307C144 209.539 149.916 209.813 151.262 214.661C152.608 219.509 167.382 265.291 173.83 270.413C183.333 277.96 192.368 291.211 181.89 302.192C175.708 308.656 167.382 309.197 163.618 307.848C159.854 306.499 150.722 297.077 150.722 294.112V290.339L132.99 269.872C132.99 269.872 136.754 301.925 138.366 306.232C139.978 310.539 144.274 316.736 144.274 319.427C144.274 322.117 138.092 327.507 130.838 332.088C123.584 336.669 116.33 340.709 99.678 341.517C83.026 342.325 63.1339 339.627 58.838 333.971C54.542 328.315 49.166 321.584 48.6259 312.155C48.0859 302.725 46.2079 265.565 46.2079 265.565C46.2079 265.565 47.288 235.395 48.094 225.432C48.9 215.469 51.0439 209.005 56.154 206.848C61.264 204.691 79.528 189.613 83.018 189.613Z" fill="#D2F446" stroke="#263238" stroke-miterlimit="10"/>
<path d="M91.36 251.724C92.0965 252.886 92.9041 254 93.778 255.061" stroke="#263238" stroke-miterlimit="10"/>
<path d="M79.254 214.12C79.254 214.12 82.1394 234.32 89.3612 248.242" stroke="#263238" stroke-miterlimit="10"/>
<path d="M81.14 239.435C81.14 239.435 87.048 258.56 96.18 268.523" stroke="#263238" stroke-miterlimit="10"/>
<path d="M119.554 253.712L132.99 269.872" stroke="#263238" stroke-miterlimit="10"/>
<path d="M115.524 248.864L117.62 251.377" stroke="#263238" stroke-miterlimit="10"/>
<path d="M116.064 256.136L128.694 265.291" stroke="#263238" stroke-miterlimit="10"/>
<path d="M134.062 220.584C134.062 220.584 121.44 232.704 121.706 246.707" stroke="#263238" stroke-miterlimit="10"/>
<path d="M173.83 270.413C173.83 270.413 178.392 279.301 171.678 285.765C164.964 292.229 150.722 290.339 150.722 290.339V294.112C150.722 297.077 159.854 306.499 163.618 307.848C167.382 309.197 175.708 308.656 181.89 302.192C192.384 291.211 183.333 277.952 173.83 270.413Z" fill="white" stroke="#263238" stroke-miterlimit="10"/>
<path d="M138.366 306.232L123.858 292.496" stroke="#263238" stroke-miterlimit="10"/>
<path d="M115.798 284.683L130.032 294.92" stroke="#263238" stroke-miterlimit="10"/>
<path d="M95.382 299.097C96.4077 299.846 97.4851 300.521 98.606 301.117" stroke="#263238" stroke-miterlimit="10"/>
<path d="M64.214 275.528C64.214 275.528 80.3823 288.181 90.6669 295.728" stroke="#263238" stroke-miterlimit="10"/>
<path d="M67.438 283.608C67.438 283.608 79.2539 292.229 81.14 293.304" stroke="#263238" stroke-miterlimit="10"/>
<path d="M53.8005 289.668H117.474C119.452 289.668 121.348 290.455 122.746 291.857C124.144 293.259 124.93 295.16 124.93 297.142V351.682C124.93 353.129 124.357 354.516 123.336 355.539C122.316 356.561 120.932 357.136 119.489 357.136H51.7855C50.3426 357.136 48.9587 356.561 47.9385 355.539C46.9182 354.516 46.345 353.129 46.345 351.682V297.142C46.345 295.16 47.1305 293.259 48.5286 291.857C49.9268 290.455 51.8231 289.668 53.8005 289.668Z" fill="#263238" stroke="#263238" stroke-miterlimit="10"/>
<path d="M47.3525 289.668H111.026C113.004 289.668 114.9 290.455 116.298 291.857C117.696 293.259 118.482 295.16 118.482 297.142V351.682C118.482 353.129 117.909 354.516 116.888 355.539C115.868 356.561 114.484 357.136 113.041 357.136H45.3375C43.8946 357.136 42.5107 356.561 41.4905 355.539C40.4702 354.516 39.897 353.129 39.897 351.682V297.142C39.897 295.16 40.6825 293.259 42.0806 291.857C43.4788 290.455 45.3752 289.668 47.3525 289.668Z" fill="#636363" stroke="#263238" stroke-miterlimit="10"/>
<path d="M54.808 361.83V309.464C54.808 308.821 54.5532 308.205 54.0998 307.75C53.6463 307.295 53.0313 307.04 52.39 307.04C51.7487 307.04 51.1337 307.295 50.6802 307.75C50.2267 308.205 49.972 308.821 49.972 309.464V361.83H54.808Z" fill="#263238"/>
<path d="M98.735 361.83V309.464C98.735 308.821 98.4802 308.205 98.0268 307.75C97.5733 307.295 96.9583 307.04 96.317 307.04C95.6757 307.04 95.0607 307.295 94.6072 307.75C94.1537 308.205 93.899 308.821 93.899 309.464V361.83H98.735Z" fill="#263238"/>
</svg>
