<svg width="347" height="350" viewBox="0 0 347 350" fill="none" xmlns="http://www.w3.org/2000/svg">
<g clip-path="url(#clip0_24_2510)">
<path d="M209.819 0.00423808C171.3 -0.413129 132.755 9.89933 98.367 27.2723C63.9785 44.6452 33.9896 72.0262 17.3736 106.807C0.757574 141.587 -1.36399 183.872 15.4955 218.514C21.8167 231.495 31.3638 243.816 44.8583 248.947C62.1178 255.503 81.2467 249.016 99.6886 248.329C124.687 247.408 148.789 257.311 170.987 268.876C193.185 280.44 214.61 293.97 238.529 301.283C262.449 308.595 290.038 308.874 310.828 294.97C330.452 281.849 340.86 258.085 343.347 234.608C345.834 211.131 341.434 187.541 337.061 164.343C332.47 140.109 310.297 1.08244 209.819 0.00423808Z" fill="#D2F446" fill-opacity="0.24"/>
<path d="M175.065 349.889C244.215 349.889 300.272 344.524 300.272 337.907C300.272 331.289 244.215 325.925 175.065 325.925C105.915 325.925 49.8579 331.289 49.8579 337.907C49.8579 344.524 105.915 349.889 175.065 349.889Z" fill="#D2F446" fill-opacity="0.25"/>
<path opacity="0.5" d="M175.065 349.889C244.215 349.889 300.272 344.524 300.272 337.907C300.272 331.289 244.215 325.925 175.065 325.925C105.915 325.925 49.8579 331.289 49.8579 337.907C49.8579 344.524 105.915 349.889 175.065 349.889Z" fill="#D2F446" fill-opacity="0.25"/>
<path d="M266.492 36.037H99.5494V257.946H266.492V36.037Z" fill="white"/>
<path d="M266.536 258.381H99.593C99.4776 258.381 99.3671 258.335 99.2855 258.253C99.204 258.172 99.1582 258.061 99.1582 257.946V36.037C99.1582 35.9217 99.204 35.8111 99.2855 35.7295C99.3671 35.648 99.4776 35.6022 99.593 35.6022H266.536C266.651 35.6022 266.762 35.648 266.843 35.7295C266.925 35.8111 266.971 35.9217 266.971 36.037V257.946C266.971 258.061 266.925 258.172 266.843 258.253C266.762 258.335 266.651 258.381 266.536 258.381ZM100.028 257.511H266.101V36.4717H100.028V257.511Z" fill="#263238"/>
<path d="M244.903 150.378H117.835V155.595H244.903V150.378Z" fill="#263238"/>
<path d="M244.903 84.669H141.39V89.8861H244.903V84.669Z" fill="#263238"/>
<path d="M244.903 117.528H117.835V122.745H244.903V117.528Z" fill="#263238"/>
<path d="M212.253 216.079C210.636 217.818 208.984 219.557 207.297 221.296H117.852V216.079H212.253Z" fill="#263238"/>
<path d="M237.216 183.229C236.104 184.968 234.964 186.707 233.782 188.446H117.852V183.229H237.216Z" fill="#263238"/>
<path d="M162.77 251.955C162.77 251.955 155.345 255.564 134.547 257.511H99.9843" stroke="#263238" stroke-linecap="round" stroke-linejoin="round"/>
<path d="M262.875 131.153C264.16 129.224 264.938 127.002 265.136 124.693C265.397 121.789 265.588 118.406 265.649 116.345L265.979 104.963V129.414L262.875 131.153Z" fill="#263238"/>
<path d="M265.006 128.406C265.006 129.466 255.285 155.1 237.182 183.185C236.069 184.924 234.93 186.663 233.747 188.402C227.26 198.13 220.064 207.366 212.219 216.035C210.601 217.774 208.949 219.513 207.262 221.253C194.524 234.174 179.847 245.173 163.405 251.477C164.344 250.999 178.665 243.773 181.786 221.253C182.018 219.6 182.183 217.861 182.282 216.035C182.699 208.418 181.882 199.289 179.117 188.402C178.688 186.71 178.21 184.971 177.682 183.185C173.665 169.612 166.761 153.526 155.762 134.492L152.928 128.319L171.448 133.536C254.163 152.743 264.962 128.319 264.962 128.319C264.962 128.319 265.006 128.388 265.006 128.406Z" fill="white" stroke="#263238" stroke-linecap="round" stroke-linejoin="round"/>
<path d="M193.837 205.784C193.895 207.324 193.86 208.865 193.733 210.401Z" fill="white"/>
<path d="M193.837 205.784C193.895 207.324 193.86 208.865 193.733 210.401" stroke="#263238" stroke-linecap="round" stroke-linejoin="round"/>
<path d="M173.943 146.579C185.96 162.143 192.02 188.446 193.603 200.923Z" fill="white"/>
<path d="M173.943 146.579C185.96 162.143 192.02 188.446 193.603 200.923" stroke="#263238" stroke-linecap="round" stroke-linejoin="round"/>
<path d="M119.696 60.2269C118.524 60.2639 117.358 60.0651 116.265 59.6423C115.172 59.2196 114.175 58.5815 113.333 57.766C112.491 56.9505 111.822 55.9741 111.365 54.895C110.908 53.8158 110.673 52.6559 110.673 51.4839C110.673 50.312 110.908 49.152 111.365 48.0729C111.822 46.9937 112.491 46.0174 113.333 45.2019C114.175 44.3864 115.172 43.7483 116.265 43.3256C117.358 42.9028 118.524 42.704 119.696 42.741C120.042 42.741 120.373 42.8784 120.618 43.123C120.863 43.3676 121 43.6993 121 44.0452C121 44.3911 120.863 44.7229 120.618 44.9675C120.373 45.2121 120.042 45.3495 119.696 45.3495C118.479 45.3392 117.288 45.6904 116.271 46.3586C115.255 47.0268 114.46 47.9819 113.987 49.1027C113.515 50.2235 113.386 51.4594 113.617 52.6536C113.848 53.8478 114.428 54.9465 115.284 55.8103C116.141 56.674 117.234 57.2639 118.427 57.505C119.619 57.7461 120.856 57.6277 121.98 57.1646C123.105 56.7015 124.067 55.9148 124.744 54.9042C125.421 53.8935 125.782 52.7046 125.782 51.4883C125.782 51.1424 125.92 50.8106 126.164 50.566C126.409 50.3214 126.741 50.184 127.086 50.184C127.432 50.184 127.764 50.3214 128.009 50.566C128.253 50.8106 128.391 51.1424 128.391 51.4883C128.388 53.7977 127.473 56.0125 125.844 57.6496C124.215 59.2867 122.005 60.2131 119.696 60.2269Z" fill="#263238"/>
<path d="M119.487 56.6184C111.496 56.6184 111.062 39.3498 111.053 35.8892V35.7848C111.053 32.3068 111.462 14.9164 119.487 14.9164C127.512 14.9164 128.069 33.6458 128.112 35.7848L121.156 35.9152C121.142 31.8908 120.557 27.8887 119.417 24.029C118.394 27.8496 117.914 31.7954 117.991 35.75V35.8544C117.914 39.8295 118.412 43.7949 119.47 47.6276C119.548 47.3755 119.626 47.0972 119.713 46.7581L120.261 44.8713L125.113 46.2886C125.353 46.3585 125.578 46.4752 125.773 46.632C125.968 46.7888 126.131 46.9826 126.251 47.2023C126.371 47.422 126.447 47.6633 126.474 47.9123C126.501 48.1614 126.479 48.4133 126.408 48.6537C125 53.9316 122.661 56.6184 119.487 56.6184Z" fill="#BFBFBF" stroke="#263238" stroke-linecap="round" stroke-linejoin="round"/>
<path d="M127.13 52.7925C126.784 52.7925 126.452 52.6551 126.208 52.4105C125.963 52.1659 125.826 51.8342 125.826 51.4883C125.826 49.8692 125.186 48.3156 124.046 47.1658C122.906 46.0161 121.358 45.3632 119.739 45.3495C119.393 45.3495 119.062 45.2121 118.817 44.9675C118.572 44.7229 118.435 44.3911 118.435 44.0452C118.435 43.6993 118.572 43.3675 118.817 43.1229C119.062 42.8783 119.393 42.7409 119.739 42.7409C122.049 42.757 124.259 43.6854 125.888 45.3238C127.517 46.9623 128.432 49.178 128.434 51.4883C128.434 51.8342 128.297 52.1659 128.052 52.4105C127.808 52.6551 127.476 52.7925 127.13 52.7925Z" fill="#263238"/>
<path d="M160.91 60.2269C158.639 60.1553 156.485 59.2027 154.904 57.5709C153.322 55.9391 152.438 53.7561 152.438 51.4839C152.438 49.2117 153.322 47.0287 154.904 45.3969C156.485 43.7651 158.639 42.8126 160.91 42.7409C161.256 42.7409 161.587 42.8783 161.832 43.1229C162.077 43.3675 162.214 43.6993 162.214 44.0452C162.214 44.3911 162.077 44.7229 161.832 44.9675C161.587 45.2121 161.256 45.3495 160.91 45.3495C159.696 45.3495 158.509 45.7095 157.499 46.3841C156.49 47.0586 155.703 48.0173 155.238 49.1391C154.774 50.2608 154.652 51.4951 154.889 52.6859C155.126 53.8767 155.711 54.9705 156.569 55.829C157.428 56.6876 158.521 57.2722 159.712 57.5091C160.903 57.746 162.137 57.6244 163.259 57.1598C164.381 56.6951 165.339 55.9083 166.014 54.8988C166.688 53.8893 167.048 52.7024 167.048 51.4883C167.048 51.1423 167.186 50.8106 167.43 50.566C167.675 50.3214 168.007 50.184 168.353 50.184C168.699 50.184 169.03 50.3214 169.275 50.566C169.519 50.8106 169.657 51.1423 169.657 51.4883C169.652 53.806 168.729 56.0273 167.089 57.6654C165.45 59.3035 163.227 60.2246 160.91 60.2269Z" fill="#263238"/>
<path d="M160.71 56.6184C152.719 56.6184 152.276 39.3498 152.276 35.8892V35.7848C152.276 32.3068 152.676 14.9164 160.71 14.9164C168.744 14.9164 169.292 33.6458 169.335 35.7848L162.379 35.9152C162.366 31.8907 161.78 27.8886 160.64 24.029C159.62 27.8502 159.143 31.7959 159.223 35.75V35.8544C159.146 39.8467 159.644 43.8292 160.701 47.6798C160.788 47.4276 160.866 47.1494 160.953 46.8103L161.501 44.9234L166.353 46.3407C166.593 46.4107 166.818 46.5274 167.013 46.6841C167.208 46.8409 167.371 47.0347 167.491 47.2544C167.612 47.4741 167.687 47.7154 167.714 47.9645C167.741 48.2135 167.719 48.4655 167.648 48.7058C166.222 53.9316 163.883 56.6184 160.71 56.6184Z" fill="#BFBFBF" stroke="#263238" stroke-linecap="round" stroke-linejoin="round"/>
<path d="M168.353 52.7925C168.007 52.7925 167.675 52.6551 167.43 52.4105C167.186 52.1659 167.048 51.8342 167.048 51.4883C167.046 49.8609 166.399 48.3008 165.248 47.15C164.097 45.9993 162.537 45.3518 160.91 45.3495C160.564 45.3495 160.232 45.2121 159.987 44.9675C159.743 44.7229 159.605 44.3911 159.605 44.0452C159.605 43.6993 159.743 43.3675 159.987 43.1229C160.232 42.8783 160.564 42.7409 160.91 42.7409C163.229 42.7432 165.452 43.6656 167.092 45.3055C168.732 46.9455 169.655 49.169 169.657 51.4883C169.657 51.8342 169.519 52.1659 169.275 52.4105C169.03 52.6551 168.698 52.7925 168.353 52.7925Z" fill="#263238"/>
<path d="M202.132 60.2269C199.861 60.1553 197.707 59.2027 196.126 57.5709C194.545 55.9391 193.661 53.7561 193.661 51.4839C193.661 49.2117 194.545 47.0287 196.126 45.3969C197.707 43.7651 199.861 42.8126 202.132 42.7409C202.478 42.7409 202.81 42.8783 203.055 43.1229C203.299 43.3675 203.437 43.6993 203.437 44.0452C203.437 44.3911 203.299 44.7229 203.055 44.9675C202.81 45.2121 202.478 45.3495 202.132 45.3495C200.918 45.3495 199.731 45.7095 198.722 46.3841C197.712 47.0586 196.926 48.0173 196.461 49.1391C195.996 50.2608 195.875 51.4951 196.112 52.6859C196.349 53.8767 196.933 54.9705 197.792 55.829C198.65 56.6876 199.744 57.2722 200.935 57.5091C202.126 57.746 203.36 57.6244 204.482 57.1598C205.603 56.6951 206.562 55.9083 207.236 54.8988C207.911 53.8893 208.271 52.7024 208.271 51.4883C208.271 51.1423 208.408 50.8106 208.653 50.566C208.898 50.3214 209.229 50.184 209.575 50.184C209.921 50.184 210.253 50.3214 210.497 50.566C210.742 50.8106 210.879 51.1423 210.879 51.4883C210.875 53.806 209.952 56.0273 208.312 57.6654C206.672 59.3035 204.45 60.2246 202.132 60.2269Z" fill="#263238"/>
<path d="M201.924 56.6184C193.933 56.6184 193.498 39.3498 193.49 35.8892V35.7848C193.49 32.3068 193.898 14.9164 201.924 14.9164C209.949 14.9164 210.514 33.6458 210.549 35.7848L203.593 35.9152C203.579 31.8908 202.994 27.8887 201.854 24.029C200.836 27.8621 200.365 31.8198 200.454 35.7848V35.8892C200.377 39.8643 200.875 43.8297 201.932 47.6624C202.011 47.4102 202.098 47.132 202.176 46.7929L202.732 44.906L207.575 46.3234C207.816 46.3933 208.04 46.51 208.236 46.6668C208.431 46.8235 208.594 47.0173 208.714 47.237C208.834 47.4568 208.91 47.698 208.937 47.9471C208.964 48.1961 208.942 48.4481 208.871 48.6884C207.41 53.9316 205.106 56.6184 201.924 56.6184Z" fill="#BFBFBF" stroke="#263238" stroke-linecap="round" stroke-linejoin="round"/>
<path d="M209.575 52.7925C209.229 52.7925 208.898 52.6551 208.653 52.4105C208.408 52.1659 208.271 51.8342 208.271 51.4883C208.269 49.8609 207.621 48.3008 206.47 47.15C205.32 45.9993 203.76 45.3518 202.132 45.3495C201.786 45.3495 201.455 45.2121 201.21 44.9675C200.966 44.7229 200.828 44.3911 200.828 44.0452C200.828 43.6993 200.966 43.3675 201.21 43.1229C201.455 42.8783 201.786 42.7409 202.132 42.7409C204.453 42.7409 206.679 43.6622 208.321 45.3024C209.962 46.9426 210.886 49.1675 210.888 51.4883C210.886 51.835 210.747 52.1667 210.501 52.4111C210.255 52.6554 209.922 52.7925 209.575 52.7925Z" fill="#263238"/>
<path d="M243.355 60.2269C242.184 60.2639 241.017 60.0651 239.924 59.6423C238.831 59.2196 237.834 58.5815 236.993 57.766C236.151 56.9505 235.482 55.9741 235.025 54.895C234.568 53.8158 234.332 52.6559 234.332 51.4839C234.332 50.312 234.568 49.152 235.025 48.0729C235.482 46.9937 236.151 46.0174 236.993 45.2019C237.834 44.3864 238.831 43.7483 239.924 43.3256C241.017 42.9028 242.184 42.704 243.355 42.741C243.701 42.741 244.033 42.8784 244.277 43.123C244.522 43.3676 244.659 43.6993 244.659 44.0452C244.659 44.3911 244.522 44.7229 244.277 44.9675C244.033 45.2121 243.701 45.3495 243.355 45.3495C242.141 45.3478 240.953 45.7063 239.942 46.3798C238.932 47.0533 238.144 48.0115 237.678 49.133C237.212 50.2546 237.089 51.4892 237.325 52.6806C237.561 53.8719 238.145 54.9666 239.003 55.826C239.861 56.6854 240.955 57.2709 242.146 57.5085C243.337 57.746 244.571 57.625 245.694 57.1606C246.816 56.6962 247.775 55.9094 248.45 54.8997C249.125 53.89 249.485 52.7028 249.485 51.4883C249.485 51.1424 249.622 50.8106 249.867 50.566C250.112 50.3214 250.443 50.184 250.789 50.184C251.135 50.184 251.467 50.3214 251.712 50.566C251.956 50.8106 252.094 51.1424 252.094 51.4883C252.091 53.8052 251.17 56.0266 249.532 57.6649C247.893 59.3032 245.672 60.2246 243.355 60.2269Z" fill="#263238"/>
<path d="M243.147 56.6184C235.156 56.6184 234.721 39.3498 234.712 35.8892V35.7848C234.712 32.3068 235.121 14.9164 243.147 14.9164C251.172 14.9164 251.754 33.6806 251.754 35.8196L244.799 35.95C244.78 31.9259 244.195 27.9245 243.06 24.0637C242.031 27.8834 241.551 31.83 241.634 35.7848V35.8892C241.569 39.8711 242.075 43.8417 243.138 47.6798C243.225 47.4276 243.303 47.1494 243.39 46.8103L243.938 44.9234L248.79 46.3407C249.03 46.4107 249.254 46.5274 249.45 46.6841C249.645 46.8409 249.808 47.0347 249.928 47.2544C250.048 47.4741 250.124 47.7154 250.151 47.9645C250.178 48.2135 250.156 48.4655 250.085 48.7058C248.659 53.9316 246.32 56.6184 243.147 56.6184Z" fill="#BFBFBF" stroke="#263238" stroke-linecap="round" stroke-linejoin="round"/>
<path d="M250.789 52.7925C250.443 52.7925 250.112 52.6551 249.867 52.4105C249.622 52.1659 249.485 51.8342 249.485 51.4883C249.485 49.8617 248.84 48.3016 247.69 47.1506C246.541 45.9996 244.982 45.3518 243.355 45.3495C243.009 45.3495 242.677 45.2121 242.433 44.9675C242.188 44.7229 242.051 44.3911 242.051 44.0452C242.051 43.6993 242.188 43.3675 242.433 43.1229C242.677 42.8783 243.009 42.7409 243.355 42.7409C245.673 42.7455 247.894 43.6689 249.532 45.3086C251.17 46.9483 252.091 49.1705 252.094 51.4883C252.094 51.8342 251.956 52.1659 251.712 52.4105C251.467 52.6551 251.135 52.7925 250.789 52.7925Z" fill="#263238"/>
<path d="M288.727 255.428C292.766 237.864 281.802 220.351 264.238 216.312C246.674 212.273 229.162 223.237 225.123 240.802C221.084 258.366 232.049 275.879 249.612 279.918C267.176 283.957 284.689 272.992 288.727 255.428Z" fill="#92A83A" stroke="#D2F446" stroke-miterlimit="10"/>
<path d="M275.97 248.129C275.971 248.529 275.893 248.925 275.741 249.295C275.588 249.665 275.364 250.001 275.081 250.284C274.798 250.567 274.462 250.791 274.093 250.943C273.723 251.096 273.327 251.174 272.927 251.173H259.98V264.128C259.98 264.935 259.659 265.71 259.089 266.28C258.518 266.851 257.744 267.172 256.937 267.172C256.13 267.172 255.356 266.851 254.785 266.28C254.214 265.71 253.894 264.935 253.894 264.128V251.146H240.947C240.14 251.146 239.366 250.826 238.795 250.255C238.224 249.684 237.904 248.91 237.904 248.103C237.904 247.296 238.224 246.522 238.795 245.951C239.366 245.38 240.14 245.06 240.947 245.06H253.894V232.139C253.894 231.332 254.214 230.558 254.785 229.987C255.356 229.416 256.13 229.096 256.937 229.096C257.744 229.096 258.518 229.416 259.089 229.987C259.659 230.558 259.98 231.332 259.98 232.139V245.06H272.927C273.329 245.06 273.726 245.139 274.097 245.294C274.468 245.449 274.805 245.675 275.088 245.96C275.371 246.246 275.594 246.584 275.746 246.957C275.897 247.329 275.973 247.727 275.97 248.129Z" fill="white"/>
<path d="M100.462 141.414C100.462 141.414 103.141 156.804 102.628 158.717C102.115 160.072 101.206 161.242 100.019 162.073L106.019 176.333V165.177C106.019 165.177 107.671 139.353 107.871 127.788C107.956 122.047 107.732 116.306 107.201 110.589L104.358 111.05C104.358 111.05 101.097 135.214 100.462 141.414Z" fill="white" stroke="#263238" stroke-linecap="round" stroke-linejoin="round"/>
<path d="M87.9244 328.464L86.255 316.186L75.1689 315.317L76.4645 328.733C78.0962 330.055 80.1447 330.754 82.244 330.704C84.3433 330.655 86.3566 329.861 87.9244 328.464Z" fill="white" stroke="#263238" stroke-linecap="round" stroke-linejoin="round"/>
<path d="M75.7428 327.177C75.3776 330.203 75.0211 333.385 75.8906 336.281C76.7601 339.176 79.3077 341.62 81.8118 340.907C82.3857 340.75 82.9335 340.428 83.5508 340.324C84.6638 340.133 85.7593 340.724 86.8027 341.237C93.1327 344.359 109.636 343.019 110.94 342.333C111.316 342.106 111.622 341.78 111.824 341.39C112.026 341 112.116 340.561 112.083 340.123C112.051 339.685 111.897 339.265 111.64 338.909C111.383 338.553 111.032 338.275 110.627 338.107C103.054 334.516 103.541 335.42 91.0372 328.333C88.7939 327.064 87.4636 327.673 86.3332 328.838C85.5915 329.564 84.6903 330.107 83.7015 330.423C82.7128 330.739 81.6638 330.82 80.6383 330.658C79.6129 330.497 78.6393 330.098 77.7954 329.494C76.9514 328.889 76.2604 328.096 75.7776 327.177H75.7428Z" fill="#263238"/>
<path d="M87.194 300.709C81.5336 307.743 74.4472 316.751 74.4472 316.751L69.3346 305.743C69.3346 305.743 81.2119 291.64 87.307 276.762C87.307 279.675 87.5418 282.849 87.6201 284.666C87.8287 290.162 87.281 295.24 87.194 300.709Z" fill="#263238"/>
<path d="M75.1776 330.507C75.1514 330.972 74.9673 331.413 74.6559 331.759C73.6821 332.629 72.6039 331.055 71.7866 330.02C69.2746 326.68 67.0107 323.161 65.0133 319.49L64.3785 313.83L62.5178 314.604H62.283L61.744 313.656C57.6226 306.456 62.5439 305.056 67.7869 305.291C68.3869 305.291 69.639 305.448 71.6562 309.317C72.1986 310.21 72.6837 311.136 73.1082 312.091C75.4462 317.931 76.1613 324.294 75.1776 330.507Z" fill="#263238"/>
<path d="M107.549 182.342C107.355 179.218 107.326 176.086 107.462 172.96C107.519 170.522 107.012 168.103 105.98 165.894C104.949 163.684 103.42 161.743 101.515 160.221C101.515 160.221 96.9584 166.308 83.942 166.308H83.2899C77.4929 166.168 71.7444 165.214 66.2131 163.473C63.8685 162.739 61.5691 161.868 59.3267 160.865C59.3267 160.865 59.5875 178.255 60.1353 194.419C60.6048 207.245 63.9089 264.85 65.9957 283.179C67.7347 298.448 72.8995 313.525 73.5168 320.038C73.8124 323.108 80.7423 322.151 84.0551 320.969C88.4026 319.412 88.7069 318.49 88.7069 318.49C88.9938 313.76 87.733 305.448 87.8374 300.744C99.6973 285.962 118.148 262.572 118.67 258.963C122.695 230.93 107.984 185.246 107.549 182.342ZM96.2019 254.511C95.8976 256.407 91.9588 266.337 87.507 277.18C87.507 272.38 89.6285 267.38 90.2546 259.633C91.4458 244.729 88.4199 228.33 88.846 216.357C91.2545 226.652 96.7584 250.955 96.2019 254.477V254.511Z" fill="#263238"/>
<path d="M114.818 263.372C112.92 264.988 110.704 266.187 108.314 266.893" stroke="#BFBFBF" stroke-linecap="round" stroke-linejoin="round"/>
<path d="M117.478 260.563C117.105 261.057 116.704 261.53 116.279 261.981" stroke="#BFBFBF" stroke-linecap="round" stroke-linejoin="round"/>
<path d="M91.5328 171.603C92.724 177.942 92.9153 186.507 90.3155 192.402C89.6663 193.411 88.8921 194.334 88.0114 195.15" stroke="#BFBFBF" stroke-linecap="round" stroke-linejoin="round"/>
<path d="M70.9954 170.925C70.2911 173.968 69.0216 178.985 67.3696 181.637C65.7848 184.376 63.1811 186.376 60.1267 187.202" stroke="#BFBFBF" stroke-linecap="round" stroke-linejoin="round"/>
<path d="M87.0461 177.342C87.9591 187.62 87.9156 197.593 88.8982 214.87" stroke="#BFBFBF" stroke-linecap="round" stroke-linejoin="round"/>
<path d="M86.4897 172.02C86.5854 172.838 86.681 173.646 86.768 174.446" stroke="white" stroke-linecap="round" stroke-linejoin="round"/>
<path d="M96.2455 251.703C96.8381 255.936 98.0358 260.062 99.8017 263.954" stroke="#BFBFBF" stroke-linecap="round" stroke-linejoin="round"/>
<path d="M96.9845 255.685C96.2214 261.718 96.5542 267.839 97.9671 273.754" stroke="#BFBFBF" stroke-linecap="round" stroke-linejoin="round"/>
<path d="M62.8047 186.159C64.3959 209.862 66.6044 227.896 68.3694 245.895" stroke="#BFBFBF" stroke-linecap="round" stroke-linejoin="round"/>
<path d="M68.4303 252.146C68.4303 251.407 68.4303 250.651 68.4303 249.894" stroke="#BFBFBF" stroke-linecap="round" stroke-linejoin="round"/>
<path d="M78.6034 321.682C77.3775 317.882 68.9086 288.64 68.5086 276.51C68.2391 268.467 67.9174 262.737 68.326 254.964" stroke="#BFBFBF" stroke-linecap="round" stroke-linejoin="round"/>
<path d="M88.2113 274.441L87.907 300.622" stroke="#BFBFBF" stroke-linecap="round" stroke-linejoin="round"/>
<path d="M105.436 94.3032C103.401 83.869 96.4715 82.5126 94.8977 82.0169C84.0551 78.5997 76.6383 78.0259 68.0651 81.7822C58.0225 86.1993 56.0052 86.3558 52.9098 97.816C51.1709 104.085 54.588 125.197 56.6226 134.388C58.2485 141.7 57.8399 160.647 60.9701 163.682C66.7783 169.308 75.0124 168.499 82.977 167.09C89.872 165.864 101.384 164.23 104.001 157.734C104.375 156.804 104.34 152.874 104.21 147.205C103.793 130.049 104.94 120.206 104.766 109.224L107.097 108.146C107.097 108.146 107.297 103.807 105.436 94.3032Z" fill="#D2F446"/>
<mask id="mask0_24_2510" style="mask-type:luminance" maskUnits="userSpaceOnUse" x="52" y="79" width="56" height="90">
<path d="M105.436 94.3032C103.401 83.869 96.4715 82.5126 94.8977 82.0169C84.0551 78.5997 76.6383 78.0259 68.0651 81.7822C58.0225 86.1993 56.0052 86.3558 52.9098 97.816C51.1709 104.085 54.588 125.197 56.6226 134.388C58.2485 141.7 57.8399 160.647 60.9701 163.682C66.7783 169.308 75.0124 168.499 82.977 167.09C89.872 165.864 101.384 164.23 104.001 157.734C104.375 156.804 104.34 152.874 104.21 147.205C103.793 130.049 104.94 120.206 104.766 109.224L107.097 108.146C107.097 108.146 107.297 103.807 105.436 94.3032Z" fill="white"/>
</mask>
<g mask="url(#mask0_24_2510)">
<path opacity="0.2" d="M55.2487 116.615C55.5531 120.163 54.3792 123.971 55.9182 127.162C56.3241 128.067 56.9895 128.831 57.83 129.357C58.6705 129.884 59.6484 130.149 60.6396 130.119C61.8743 129.988 63.0394 129.249 64.2741 129.388C65.8566 129.553 66.9434 131.005 67.8738 132.301C69.8194 135.301 72.3118 137.909 75.221 139.988C78.2034 141.944 81.9944 142.927 85.4115 141.9C84.5087 143.378 83.4911 144.782 82.3683 146.1C84.2638 145.396 88.4547 142.344 92.124 142.327L103.836 142.248C104.593 139.796 102.836 137.109 100.506 136.023C98.1757 134.936 95.4802 135.075 92.9326 135.423C90.385 135.77 87.8113 136.292 85.2724 135.944C81.8719 135.303 78.8093 133.476 76.6296 130.788C74.4778 128.113 72.6479 125.195 71.1779 122.093C70.5431 123.293 68.7868 123.441 67.6043 122.789C66.4872 122.02 65.5546 121.013 64.874 119.841C62.5525 116.563 58.1094 111.102 54.0141 110.215C53.3359 111.963 55.0835 114.685 55.2487 116.615Z" fill="black"/>
<path opacity="0.2" d="M91.2545 134.031C95.7933 132.292 98.8365 127.788 100.149 123.093C100.932 120.258 102.697 112.476 100.732 110.05C99.2626 114.128 98.2452 118.354 96.6541 122.406C95.8367 124.475 94.9672 126.519 94.0456 128.493C93.5761 129.458 92.211 133.657 91.2545 134.031Z" fill="black"/>
<path opacity="0.2" d="M58.4659 147.265C61.3787 154.282 68.0912 159.265 75.3775 161.412C82.6639 163.56 91.1501 163.482 98.6191 162.073C88.9938 167.525 76.2296 168.056 65.9261 164.03C64.0741 163.308 62.2308 164.143 60.8657 162.691C57.7355 159.369 57.8746 152.5 58.2572 147.909L56.5182 147.987" fill="black"/>
<path opacity="0.2" d="M77.6209 92.3728C77.9516 92.8695 78.4426 93.2378 79.0121 93.4163C79.3442 93.4494 79.6792 93.3955 79.9841 93.2598C80.289 93.1241 80.5534 92.9113 80.751 92.6424C81.1454 92.0953 81.4889 91.5132 81.777 90.9034C82.6063 89.4298 83.8906 88.2644 85.4376 87.5818C86.2777 89.6019 87.5476 91.4148 89.1591 92.8946H89.6981C90.5397 90.8692 90.7783 88.6439 90.385 86.4862C90.3107 86.7629 90.1784 87.0207 89.9971 87.2425C89.8157 87.4644 89.5893 87.6452 89.333 87.7731C88.9244 86.8914 88.385 86.0765 87.7331 85.3559C87.4032 84.999 86.9979 84.7202 86.5466 84.5397C86.0954 84.3592 85.6096 84.2815 85.1246 84.3124C84.7147 84.3782 84.3182 84.5103 83.9508 84.7037C81.5336 85.8776 79.8294 88.1818 78.5512 90.5034C76.7543 89.1835 74.8817 87.9699 72.943 86.8688C74.3777 88.7296 76.0471 90.5295 77.6209 92.3728Z" fill="black"/>
</g>
<path d="M105.436 94.3032C103.401 83.869 96.4715 82.5126 94.8977 82.0169C84.0551 78.5997 76.6383 78.0259 68.0651 81.7822C58.0225 86.1993 56.0052 86.3558 52.9098 97.816C51.1709 104.085 54.588 125.197 56.6226 134.388C58.2485 141.7 57.8399 160.647 60.9701 163.682C66.7783 169.308 75.0124 168.499 82.977 167.09C89.872 165.864 101.384 164.23 104.001 157.734C104.375 156.804 104.34 152.874 104.21 147.205C103.793 130.049 104.94 120.206 104.766 109.224L107.097 108.146C107.097 108.146 107.297 103.807 105.436 94.3032Z" stroke="#263238" stroke-miterlimit="10"/>
<path d="M87.6287 79.704C88.9339 79.7022 90.207 79.3003 91.2767 78.5525C92.3463 77.8046 93.161 76.7468 93.6108 75.5217C94.8629 72.0436 95.4455 60.966 95.4455 58.9487C95.4455 56.9314 93.8543 52.8621 93.5326 50.5492C93.2109 48.2362 91.7936 43.4191 91.7936 43.4191L87.5766 39.3498L81.777 41.8018L73.569 42.8887C73.569 42.8887 72.0387 56.201 69.9432 54.062C67.8477 51.923 61.5178 54.6707 61.9091 59.7139C62.3004 64.757 68.752 64.6875 68.752 64.6875C68.752 64.6875 70.3519 66.2613 71.3083 71.5045C71.9066 74.7652 71.9272 78.1057 71.3692 81.3735C72.4031 82.6449 73.7442 83.6315 75.2656 84.2401C76.7871 84.8487 78.4387 85.0592 80.0641 84.8516C85.6202 84.1472 86.1506 80.3736 86.1506 80.3736C86.1506 80.3736 86.2202 79.7388 87.6287 79.704Z" fill="white"/>
<path d="M68.8476 57.3227C67.6129 55.5837 63.1785 52.7664 62.1003 58.6618C61.0222 64.5571 66.9087 64.1832 69.9954 64.9136C72.3082 68.7655 76.9513 75.2347 80.864 77.2607C83.2899 78.5215 86.3245 79.9823 89.1851 79.6519C92.0457 79.3215 93.1848 77.6085 93.7412 74.9043C94.5118 71.2739 95.0146 67.5917 95.2455 63.8875C95.3846 61.5312 95.7932 58.3748 94.8368 56.1402C93.463 52.9143 93.7586 49.184 92.7065 45.8886C91.6545 42.5931 88.8025 40.1759 86.1593 38.0629" stroke="#263238" stroke-linecap="round" stroke-linejoin="round"/>
<path d="M79.4468 55.1663C81.2553 54.0446 82.8291 53.5577 84.3507 55.1663C84.7768 55.1663 85.7593 53.4273 85.7593 53.4273C85.3105 52.8802 84.7054 52.483 84.0249 52.2888C83.3445 52.0946 82.6209 52.1126 81.9509 52.3404C79.299 52.9838 79.4468 55.1663 79.4468 55.1663Z" fill="#263238"/>
<path d="M83.4725 68.2525C84.7159 70.0437 86.0375 70.5915 88.3678 70.3915" stroke="#263238" stroke-linecap="round" stroke-linejoin="round"/>
<path d="M82.5769 57.914C82.9769 57.914 83.3682 58.5139 83.4464 59.34C83.5247 60.166 83.2464 60.8616 82.8378 60.8877C82.4291 60.9138 82.0465 60.2791 81.9683 59.4617C81.89 58.6444 82.203 57.9488 82.5769 57.914Z" fill="#263238"/>
<path d="M91.3936 56.7488C91.811 56.7488 92.2023 57.3401 92.2631 58.1661C92.324 58.9922 92.0718 59.6965 91.6545 59.7312C91.2371 59.766 90.8545 59.1226 90.785 58.3052C90.7154 57.4879 90.985 56.7923 91.3936 56.7488Z" fill="#263238"/>
<path d="M90.4198 54.2098C90.4198 54.2098 92.4196 53.236 93.2196 53.9403C93.2196 53.9403 93.7934 51.9491 92.2805 51.4882C91.9029 51.3313 91.4805 51.32 91.095 51.4565C90.7095 51.5931 90.3884 51.8677 90.1937 52.2273L90.2546 54.375L90.4198 54.2098Z" fill="#263238"/>
<path d="M86.2723 79.5301C86.3244 79.5301 85.8984 82.843 84.5333 83.7734C83.6202 84.5755 82.4446 85.0148 81.2292 85.0081C78.4208 85.2515 72.8647 83.7821 71.3952 81.3735C71.935 78.9966 72.0205 76.5391 71.6474 74.1304C71.3952 71.0094 70.8301 67.9216 69.9606 64.9136C69.9606 64.9136 77.2382 78.4519 86.2723 79.5301Z" stroke="#263238" stroke-linecap="round" stroke-linejoin="round"/>
<path d="M72.0647 78.878C70.1518 79.3301 68.5867 79.4345 68.1694 80.7474C67.8911 81.617 68.5259 82.3821 69.2041 83.1038C72.0237 86.028 75.2723 88.5055 78.8381 90.4512C80.4023 88.0959 82.3237 85.9984 84.5332 84.2342C80.4019 83.4354 76.4798 81.7925 73.0124 79.4084L72.0647 78.878Z" fill="white" stroke="#263238" stroke-linecap="round" stroke-linejoin="round"/>
<path d="M86.3245 79.791C86.8845 79.804 87.4336 79.9485 87.9275 80.2129C88.4214 80.4772 88.8462 80.8539 89.1677 81.3126C89.9851 82.243 90.6459 86.0602 89.8112 88.4861C87.9504 86.3297 86.8027 83.0691 84.116 83.9125C86.2201 83.2517 86.3245 79.791 86.3245 79.791Z" fill="white" stroke="#263238" stroke-linecap="round" stroke-linejoin="round"/>
<path d="M71.7692 67.6786C71.7692 67.6786 75.2993 80.6692 79.3077 81.9039C80.4861 82.2357 81.7351 82.2211 82.9055 81.8618C84.0758 81.5026 85.1179 80.8138 85.9071 79.8779C78.5077 77.4607 71.7692 67.6786 71.7692 67.6786Z" fill="#263238"/>
<path d="M75.1167 52.723C72.6734 54.2098 70.9866 58.6617 72.743 60.992C74.4993 63.3223 72.6908 64.7049 71.8735 65.4961C71.2505 64.2538 70.7075 62.973 70.2475 61.6616C69.7171 60.1138 69.7693 58.7574 68.8998 57.3749C68.4216 56.6097 66.2131 55.3837 65.3349 55.1489C64.0393 54.8011 62.7264 56.201 62.309 57.4792C62.0108 58.7955 62.0527 60.166 62.4308 61.4616C60.6918 59.5921 60.5526 59.0704 60.3787 56.5488C60.3981 55.1724 60.3342 53.796 60.1875 52.4273C59.9092 51.0013 59.1875 49.6797 58.9963 48.245C58.6658 45.7147 60.0136 43.3061 61.3178 41.1149C62.4573 38.9389 63.9466 36.9649 65.7261 35.2718C67.38 33.9724 69.2446 32.9666 71.2387 32.298C75.6905 30.6199 80.5075 29.5591 85.2115 30.2721C89.9155 30.9851 94.4977 33.7501 96.5149 38.0107C97.2865 39.4413 97.518 41.1017 97.1671 42.6887C96.94 43.4881 96.5046 44.2127 95.9053 44.7883C95.306 45.3639 94.5645 45.7699 93.7567 45.9645C92.9488 46.1592 92.1038 46.1356 91.3081 45.8961C90.5125 45.6566 89.7948 45.2099 89.2286 44.6017C90.197 44.8441 91.2194 44.7459 92.124 44.3234C92.5698 44.1045 92.9482 43.7691 93.2191 43.3528C93.49 42.9364 93.6433 42.4547 93.663 41.9584C93.6441 41.631 93.5545 41.3116 93.4003 41.0222C93.2461 40.7328 93.0311 40.4802 92.77 40.2819C92.5088 40.0836 92.2078 39.9442 91.8877 39.8733C91.5675 39.8025 91.2358 39.8019 90.9154 39.8715C90.6081 39.982 90.3305 40.1619 90.1042 40.3972C89.8778 40.6326 89.7089 40.917 89.6104 41.2283C89.512 41.5396 89.4867 41.8695 89.5366 42.1922C89.5865 42.5149 89.7102 42.8217 89.8981 43.0887L88.3938 42.3322L88.2286 43.3322L86.4897 42.1062L86.3592 42.9757C85.5593 42.654 79.9424 42.9757 78.0208 43.1844C77.0574 43.2782 76.1052 43.4646 75.1775 43.7409C74.1341 44.0539 73.8385 44.1582 73.6472 45.2538C73.1081 48.4102 72.4386 50.9578 75.1167 52.723Z" fill="#263238"/>
<path d="M75.7861 37.1586C75.6231 37.3076 75.4965 37.492 75.416 37.6977C75.3355 37.9033 75.3032 38.1247 75.3217 38.3447C75.3402 38.5648 75.4089 38.7777 75.5226 38.967C75.6363 39.1563 75.7919 39.317 75.9774 39.4368" stroke="#BFBFBF" stroke-linecap="round" stroke-linejoin="round"/>
<path d="M77.5512 37.5412C77.4413 37.7027 77.3826 37.8936 77.3826 38.089C77.3826 38.2844 77.4413 38.4752 77.5512 38.6368" stroke="#BFBFBF" stroke-linecap="round" stroke-linejoin="round"/>
<path d="M79.3685 37.5325C79.2729 37.889 79.1685 38.2542 79.0642 38.6107" stroke="#BFBFBF" stroke-linecap="round" stroke-linejoin="round"/>
<path d="M83.942 36.6456C83.5936 36.9112 83.3327 37.2753 83.1932 37.6907C83.0537 38.1061 83.042 38.5538 83.1595 38.9759" stroke="#BFBFBF" stroke-linecap="round" stroke-linejoin="round"/>
<path d="M85.1419 39.1498C85.0848 38.592 85.2363 38.0329 85.567 37.5801C85.8977 37.1273 86.3844 36.813 86.9331 36.6978" stroke="#BFBFBF" stroke-linecap="round" stroke-linejoin="round"/>
<path d="M86.8026 39.3324C87.1811 38.5446 87.7727 37.8786 88.5104 37.4099C89.248 36.9411 90.1022 36.6884 90.9762 36.6804" stroke="#BFBFBF" stroke-linecap="round" stroke-linejoin="round"/>
<path d="M88.2373 40.0976C88.5362 39.5837 88.9504 39.1464 89.4473 38.8201C89.9442 38.4939 90.5101 38.2876 91.1004 38.2176C91.6907 38.1476 92.2892 38.2158 92.8486 38.4168C93.408 38.6179 93.913 38.9462 94.3238 39.3759" stroke="#BFBFBF" stroke-linecap="round" stroke-linejoin="round"/>
<path d="M71.0214 38.8194C70.9049 38.993 70.8283 39.1901 70.797 39.3968C70.7657 39.6035 70.7805 39.8145 70.8403 40.0148C70.9001 40.215 71.0035 40.3996 71.1431 40.5552C71.2826 40.7109 71.4548 40.8337 71.6474 40.9149" stroke="#BFBFBF" stroke-linecap="round" stroke-linejoin="round"/>
<path d="M73.6211 36.2108C73.1146 37.0521 72.9382 38.0513 73.1262 39.0151C73.3141 39.9789 73.853 40.8387 74.6385 41.4279" stroke="#BFBFBF" stroke-linecap="round" stroke-linejoin="round"/>
<path d="M68.7955 40.2889C68.7489 40.4318 68.7354 40.5835 68.7561 40.7323C68.7768 40.8812 68.8311 41.0235 68.9149 41.1483C68.9987 41.2731 69.1097 41.3772 69.2397 41.4528C69.3696 41.5284 69.515 41.5734 69.6649 41.5845" stroke="#BFBFBF" stroke-linecap="round" stroke-linejoin="round"/>
<path d="M66.8131 41.5236C66.7629 41.7149 66.787 41.9181 66.8806 42.0923C66.9742 42.2665 67.1302 42.3988 67.3174 42.4627" stroke="#BFBFBF" stroke-linecap="round" stroke-linejoin="round"/>
<path d="M65.0566 42.7583C65.0366 42.8124 65.0286 42.8702 65.0331 42.9277C65.0375 42.9852 65.0544 43.0411 65.0825 43.0915C65.1105 43.1418 65.1492 43.1856 65.1958 43.2196C65.2423 43.2537 65.2957 43.2772 65.3522 43.2887" stroke="#BFBFBF" stroke-linecap="round" stroke-linejoin="round"/>
<path d="M101.228 107.32C101.654 122.267 99.8625 137.901 82.0988 146.17" stroke="#263238" stroke-linecap="round" stroke-linejoin="round"/>
<path d="M74.821 152.987C82.5611 155.1 90.6408 155.673 98.6017 154.674" stroke="#263238" stroke-linecap="round" stroke-linejoin="round"/>
<path d="M68.6912 150.961C69.7085 151.352 70.7345 151.726 71.7692 152.065" stroke="#263238" stroke-linecap="round" stroke-linejoin="round"/>
<path d="M162.457 130.979C162.49 130.612 162.434 130.242 162.294 129.901C162.154 129.56 161.934 129.258 161.653 129.019C161.372 128.781 161.038 128.613 160.678 128.531C160.319 128.448 159.945 128.453 159.588 128.545C159.588 128.632 159.397 128.658 159.414 128.736C160.086 129.262 160.613 129.95 160.945 130.736C161.449 130.771 161.953 130.962 162.457 130.979Z" stroke="#263238" stroke-linecap="round" stroke-linejoin="round"/>
<path d="M161.536 132.518C160.97 130.902 160.164 129.381 159.145 128.006C155.954 125.554 157.345 124.762 151.163 123.658C151.163 123.728 139.216 126.745 132.712 129.745C132.712 129.745 89.9416 124.684 89.9416 124.275L83.3335 115.58L64.735 118.476C64.735 118.476 74.6559 134.588 82.1249 138.718C82.1249 138.718 117.774 137.849 129.338 137.788C135.625 137.788 139.155 140.987 145.337 134.075C145.337 134.075 148.711 137.405 150.719 136.449C152.041 136.083 147.746 132.466 146.276 131.284C146.746 131.553 153.354 136.118 157.032 136.249C157.207 136.258 157.38 136.208 157.524 136.108C157.668 136.008 157.774 135.864 157.827 135.696C157.88 135.529 157.876 135.349 157.815 135.185C157.755 135.021 157.641 134.881 157.493 134.788C157.493 134.788 148.346 129.658 148.798 129.006C148.798 129.006 153.867 130.832 154.675 131.953C158.058 136.596 160.345 134.97 160.666 134.692C161.327 134.118 160.405 133.597 160.405 133.058C160.336 133.066 161.692 133.457 161.536 132.518Z" fill="white" stroke="#263238" stroke-linecap="round" stroke-linejoin="round"/>
<path d="M151.928 126.745C153.736 127.458 156.275 128.588 157.484 130.11C159.832 133.066 160.336 133.066 160.336 133.066" stroke="#263238" stroke-linecap="round" stroke-linejoin="round"/>
<path d="M57.1965 87.8514C57.1965 87.8514 51.4404 93.0685 53.0664 106.859C53.9359 113.885 62.3613 125.554 62.3613 125.554L85.2898 118.276C85.2898 118.276 79.8729 106.033 74.1342 97.7639" stroke="#263238" stroke-miterlimit="10"/>
<path d="M77.8556 97.5117C79.3436 100.944 80.1951 104.618 80.3684 108.355" stroke="#263238" stroke-linecap="round" stroke-linejoin="round"/>
<path d="M90.7763 53.6968C90.7763 53.749 88.5504 57.1749 89.246 58.1313C92.011 61.7659 92.3936 66.0613 91.185 66.2613C89.5851 66.5135 88.3939 65.2266 87.707 64.757" stroke="#263238" stroke-linecap="round" stroke-linejoin="round"/>
<path d="M55.5444 120.597L60.0831 126.284L85.2985 118.276L82.2031 111.92C82.2031 111.92 55.0748 120.597 55.5444 120.597Z" fill="white" stroke="#263238" stroke-linecap="round" stroke-linejoin="round"/>
<path d="M85.7594 84.3385C85.7594 84.1907 88.8548 100.92 88.8548 100.92L86.7941 101.398" stroke="#263238" stroke-linecap="round" stroke-linejoin="round"/>
<path d="M104.81 106.485L108.123 105.259L108.331 110.424L104.749 111.754L104.81 106.485Z" fill="white" stroke="#263238" stroke-linecap="round" stroke-linejoin="round"/>
<path d="M102.984 97.503C103.897 102.16 104.507 106.871 104.81 111.607Z" fill="white"/>
<path d="M102.984 97.503C103.897 102.16 104.507 106.871 104.81 111.607" stroke="#263238" stroke-linecap="round" stroke-linejoin="round"/>
<path d="M101.923 91.8251C102.115 92.9207 102.306 93.9641 102.506 94.9988Z" fill="white"/>
<path d="M101.923 91.8251C102.115 92.9207 102.306 93.9641 102.506 94.9988" stroke="#263238" stroke-linecap="round" stroke-linejoin="round"/>
</g>
<defs>
<clipPath id="clip0_24_2510">
<rect width="347" height="350" fill="white"/>
</clipPath>
</defs>
</svg>
